<?xml version="1.0" encoding="utf-8"?><svg viewBox="0 0 34 34" xmlns="http://www.w3.org/2000/svg" xmlns:xlink="http://www.w3.org/1999/xlink"><style>:root>svg{display:none}:root>svg:target{display:block}</style><svg fill="none" viewBox="0 0 11 7" id="arrow" xmlns="http://www.w3.org/2000/svg"><path d="m1 1 4.5 4L10 1" stroke="#3B3937" stroke-width="2" stroke-linecap="round"/></svg><svg fill="none" viewBox="0 0 24 24" id="arrow-carousel" xmlns="http://www.w3.org/2000/svg"><rect x=".75" y="-.75" width="21.5" height="21.5" rx="10.75" transform="matrix(-1 0 0 1 23.5 2)" fill="#fff"/><path d="M12.834 15.333 9.5 12l3.334-3.333" stroke="#3B3937" stroke-width="2" stroke-linecap="round"/><rect x=".75" y="-.75" width="21.5" height="21.5" rx="10.75" transform="matrix(-1 0 0 1 23.5 2)" stroke="#DADADA" stroke-width="1.5"/></svg><svg fill="none" viewBox="0 0 12 12" id="arrow-next" xmlns="http://www.w3.org/2000/svg"><path d="M0 6h10m0 0L5 1m5 5-5 5" stroke="#2E2E2E" stroke-width="1.5"/></svg><svg fill="none" viewBox="0 0 12 12" id="arrow-prev" xmlns="http://www.w3.org/2000/svg"><path d="M12 6H2m0 0 5-5M2 6l5 5" stroke="#2E2E2E" stroke-width="1.5"/></svg><svg fill="none" viewBox="0 0 24 10" id="burger" xmlns="http://www.w3.org/2000/svg"><path fill="#fff" d="M0 0h24v2H0zM0 8h24v2H0z"/></svg><svg fill="none" viewBox="0 0 20 20" id="checkbox" xmlns="http://www.w3.org/2000/svg"><path d="M20 0H0v20h20V0Z" fill="#3B3937"/><path d="m5 10.5 3.5 3 7.5-7" stroke="#fff" stroke-width="2" stroke-linecap="round"/></svg><svg fill="none" viewBox="0 0 18 18" id="checked" xmlns="http://www.w3.org/2000/svg"><g clip-path="url(#ga)"><path d="M18 0H0v18h18V0Z" fill="#3B3937"/><path d="m5.25 9.375 2.625 2.25 5.625-5.25" stroke="#fff" stroke-width="2" stroke-linecap="round"/></g><defs><clipPath id="ga"><rect width="18" height="18" rx="9" fill="#fff"/></clipPath></defs></svg><svg fill="none" viewBox="0 0 24 24" id="filter-closed" xmlns="http://www.w3.org/2000/svg"><g clip-path="url(#ha)"><path d="M21 18v3h-2v-3h-2v-3h6v3h-2ZM5 18v3H3v-3H1v-3h6v3H5Zm6-12V3h2v3h2v3H9V6h2Zm0 5h2v10h-2V11Zm-8 2V3h2v10H3Zm16 0V3h2v10h-2Z" fill="#3B3937"/></g><defs><clipPath id="ha"><path fill="#fff" d="M0 0h24v24H0z"/></clipPath></defs></svg><svg fill="none" viewBox="0 0 9 15" id="filter-opened" xmlns="http://www.w3.org/2000/svg"><path d="M7 2 2 7.5 7 13" stroke="#3B3937" stroke-width="2.5" stroke-linecap="round"/></svg><svg fill="none" viewBox="0 0 24 24" id="phone" xmlns="http://www.w3.org/2000/svg"><g clip-path="url(#ja)"><path d="M9.366 10.682a10.555 10.555 0 0 0 3.952 3.952l.884-1.238a1 1 0 0 1 1.294-.296 11.422 11.422 0 0 0 4.583 1.364 1 1 0 0 1 .921.997v4.462a1 1 0 0 1-.898.995A15.51 15.51 0 0 1 18.5 21C9.94 21 3 14.06 3 5.5c0-.538.027-1.072.082-1.602A1 1 0 0 1 4.077 3h4.462a1 1 0 0 1 .997.921A11.422 11.422 0 0 0 10.9 8.504a1 1 0 0 1-.296 1.294l-1.238.884Zm-2.522-.657 1.9-1.357A13.41 13.41 0 0 1 7.647 5H5.01c-.006.166-.009.333-.009.5C5 12.956 11.044 19 18.5 19c.167 0 .334-.003.5-.01v-2.637a13.413 13.413 0 0 1-3.668-1.097l-1.357 1.9a12.445 12.445 0 0 1-1.588-.75l-.058-.033a12.556 12.556 0 0 1-4.702-4.702l-.033-.058a12.444 12.444 0 0 1-.75-1.588Z" fill="#fff"/></g><defs><clipPath id="ja"><path fill="#fff" d="M0 0h24v24H0z"/></clipPath></defs></svg><svg fill="none" viewBox="0 0 28 28" id="pinterest" xmlns="http://www.w3.org/2000/svg"><path d="M15.586 2.534a11.578 11.578 0 0 0-6.213 22.079 8.978 8.978 0 0 1 .189-2.654c.214-.971 1.5-6.323 1.5-6.323a4.326 4.326 0 0 1-.375-1.826c0-1.718.992-3 2.225-3a1.544 1.544 0 0 1 1.554 1.745c0 1.041-.67 2.618-1.019 4.097a1.786 1.786 0 0 0 1.823 2.226c2.197 0 3.669-2.814 3.669-6.136 0-2.546-1.686-4.454-4.795-4.454a5.493 5.493 0 0 0-5.706 5.55 3.426 3.426 0 0 0 .75 2.28.555.555 0 0 1 .187.64c-.053.213-.187.721-.24.908a.41.41 0 0 1-.59.294c-1.603-.642-2.357-2.404-2.357-4.417 0-3.295 2.76-7.24 8.28-7.24 4.393 0 7.315 3.215 7.315 6.652 0 4.524-2.52 7.926-6.243 7.926a3.311 3.311 0 0 1-2.84-1.442s-.67 2.68-.801 3.187a9.29 9.29 0 0 1-1.18 2.467c1.068.324 2.178.486 3.294.481a11.56 11.56 0 0 0 11.57-11.577 11.576 11.576 0 0 0-9.995-11.462l-.002-.001Z" fill="#3B3937"/></svg><svg fill="none" viewBox="0 0 24 24" id="pinterest-footer" xmlns="http://www.w3.org/2000/svg"><g clip-path="url(#ka)"><path d="M13.268 2.827a9.262 9.262 0 0 0-4.97 17.663 7.182 7.182 0 0 1 .15-2.123c.172-.777 1.2-5.059 1.2-5.059a3.461 3.461 0 0 1-.299-1.46c0-1.375.793-2.401 1.78-2.401a1.235 1.235 0 0 1 1.243 1.396c0 .834-.535 2.095-.815 3.278a1.43 1.43 0 0 0 1.459 1.78c1.757 0 2.935-2.25 2.935-4.908 0-2.037-1.35-3.563-3.836-3.563a4.394 4.394 0 0 0-4.565 4.44 2.74 2.74 0 0 0 .6 1.823.445.445 0 0 1 .15.513c-.043.17-.15.577-.193.726a.328.328 0 0 1-.472.235c-1.281-.513-1.885-1.923-1.885-3.533 0-2.636 2.207-5.792 6.624-5.792 3.515 0 5.852 2.572 5.852 5.322 0 3.62-2.016 6.34-4.995 6.34a2.65 2.65 0 0 1-2.272-1.153s-.535 2.144-.64 2.55a7.432 7.432 0 0 1-.944 1.973 8.95 8.95 0 0 0 2.635.385 9.25 9.25 0 0 0 9.256-9.262 9.26 9.26 0 0 0-7.996-9.17h-.002Z" fill="#fff"/></g><defs><clipPath id="ka"><path fill="#fff" transform="translate(.889 .889)" d="M0 0h22.222v22.222H0z"/></clipPath></defs></svg><svg fill="none" viewBox="0 0 24 24" id="reset" xmlns="http://www.w3.org/2000/svg"><g clip-path="url(#ma)"><path d="M6 4h15a1 1 0 0 1 1 1v7h-2V6H6v3L1 5l5-4v3Zm12 16H3a1 1 0 0 1-1-1v-7h2v6h14v-3l5 4-5 4v-3Z" fill="#B1B0AF"/></g><defs><clipPath id="ma"><path fill="#fff" d="M0 0h24v24H0z"/></clipPath></defs></svg><svg fill="none" viewBox="0 0 34 34" id="telegram" xmlns="http://www.w3.org/2000/svg"><path fill-rule="evenodd" clip-rule="evenodd" d="M4.792 16.01c6.562-3.136 10.937-5.204 13.126-6.203 6.251-2.852 7.55-3.347 8.397-3.363.186-.004.602.047.872.287.228.202.29.476.32.668.03.192.068.63.038.972-.339 3.905-1.805 13.38-2.55 17.752-.316 1.85-.937 2.47-1.539 2.532-1.307.131-2.3-.948-3.565-1.858-1.981-1.425-3.1-2.312-5.023-3.702-2.223-1.606-.782-2.49.484-3.932.332-.378 6.091-6.124 6.203-6.646.014-.065.026-.308-.105-.436-.132-.128-.326-.085-.466-.05-.199.05-3.364 2.345-9.495 6.884-.898.677-1.711 1.007-2.44.99-.804-.02-2.35-.5-3.5-.909-1.409-.503-2.53-.768-2.432-1.622.051-.445.61-.9 1.675-1.364Z" fill="#3B3937"/></svg><svg fill="none" viewBox="0 0 28 28" id="telegram-footer" xmlns="http://www.w3.org/2000/svg"><path fill-rule="evenodd" clip-rule="evenodd" d="M4.233 13.21c5.25-2.509 8.75-4.163 10.501-4.962 5.001-2.282 6.04-2.678 6.717-2.691.15-.003.482.037.698.23.182.162.232.38.256.534.024.154.054.504.03.778-.27 3.123-1.443 10.703-2.04 14.201-.252 1.48-.749 1.977-1.23 2.026-1.046.105-1.84-.759-2.853-1.487-1.585-1.14-2.48-1.849-4.018-2.96-1.778-1.286-.626-1.992.387-3.147.266-.302 4.873-4.9 4.962-5.316.011-.052.022-.247-.084-.35-.105-.102-.26-.067-.372-.039-.16.04-2.691 1.875-7.596 5.507-.718.542-1.37.805-1.953.791-.643-.015-1.88-.398-2.799-.726-1.127-.402-2.024-.615-1.946-1.298.041-.356.488-.72 1.34-1.091Z" fill="#fff"/></svg><svg fill="none" viewBox="0 0 28 28" id="vkontakte" xmlns="http://www.w3.org/2000/svg"><g clip-path="url(#qa)"><path d="M24.732 8.589c.158-.494 0-.839-.739-.839h-2.462c-.633 0-.914.313-1.072.658 0 0-1.249 2.862-3.025 4.704-.58.543-.827.707-1.143.707-.158 0-.387-.164-.387-.658V8.59c0-.592-.176-.839-.703-.839h-3.87c-.386 0-.632.28-.632.526 0 .56.879.691.985 2.237v3.388c0 .74-.141.872-.458.872-.826 0-2.866-2.862-4.062-6.151-.246-.609-.475-.872-1.108-.872H3.594c-.703 0-.844.313-.844.658 0 .608.827 3.635 3.886 7.632 2.04 2.73 4.907 4.21 7.51 4.21 1.565 0 1.758-.329 1.758-.888V17.29c0-.658.14-.79.65-.79.37 0 .986.165 2.445 1.48 1.67 1.563 1.952 2.27 2.884 2.27h2.462c.704 0 1.055-.329.844-.97-.228-.642-1.02-1.58-2.075-2.698-.58-.641-1.442-1.316-1.688-1.661-.37-.444-.264-.641 0-1.02 0-.016 3.007-3.963 3.306-5.312Z" fill="#3B3937" stroke="#3B3937" stroke-width=".5"/></g><defs><clipPath id="qa"><path fill="#fff" transform="translate(.25 .25)" d="M0 0h27.5v27.5H0z"/></clipPath></defs></svg><svg fill="none" viewBox="0 0 22 22" id="vkontakte-footer" xmlns="http://www.w3.org/2000/svg"><g clip-path="url(#pa)"><path d="M19.586 6.671c.126-.395 0-.671-.591-.671h-1.97c-.506 0-.731.25-.858.526 0 0-.999 2.29-2.42 3.764-.464.434-.661.565-.914.565-.127 0-.31-.131-.31-.526V6.67c0-.474-.14-.671-.563-.671H8.865c-.31 0-.506.224-.506.421 0 .447.703.553.788 1.79v2.71c0 .592-.113.697-.366.697-.661 0-2.293-2.29-3.25-4.92C5.334 6.21 5.151 6 4.645 6h-1.97C2.113 6 2 6.25 2 6.526c0 .487.661 2.908 3.11 6.106C6.74 14.816 9.033 16 11.115 16c1.252 0 1.407-.263 1.407-.71v-1.658c0-.527.113-.632.52-.632.296 0 .789.132 1.956 1.184C16.336 15.434 16.561 16 17.306 16h1.97c.563 0 .844-.263.675-.776-.183-.514-.816-1.264-1.66-2.158-.464-.513-1.153-1.053-1.35-1.33-.296-.354-.211-.512 0-.815 0-.013 2.405-3.171 2.645-4.25Z" fill="#fff" stroke="#fff" stroke-width=".5"/></g><defs><clipPath id="pa"><path fill="#fff" d="M0 0h22v22H0z"/></clipPath></defs></svg></svg>