<svg width="90" height="51" viewBox="0 0 90 51" fill="none" xmlns="http://www.w3.org/2000/svg">
<path id="Vector" d="M89.7148 35.4726C89.4644 34.3501 88.9531 33.3323 88.361 32.3537C87.7663 31.3725 87.0125 30.6032 86.0605 29.9674C85.0719 29.3054 84.0808 28.9365 82.9122 28.7533C80.6586 28.4001 78.2224 28.9574 76.4174 30.3782C75.6897 30.9486 74.9672 31.8722 74.7638 32.7959C74.7272 32.9581 74.6359 33.4683 74.9516 33.3846C75.3245 33.2852 75.6845 32.7514 75.9766 32.5054C76.793 31.8304 77.6955 31.396 78.7363 31.1998C79.8292 30.9983 80.9873 30.8989 82.0906 31.0559C83.1052 31.1998 84.039 31.7754 84.7589 32.4924C85.5179 33.2459 86.2405 34.3266 86.5195 35.3732C87.0829 37.4847 86.963 39.8579 86.3135 41.946C86.1413 42.498 85.9196 43.1025 85.5727 43.5682C85.4527 43.7278 85.3223 43.9555 85.1293 44.0313C84.905 44.1229 84.7511 43.9005 84.6259 43.754C84.2164 43.2804 83.8121 42.8016 83.3635 42.3594C83.0609 42.0611 82.4192 41.6869 82.5757 41.1872C82.7583 40.6037 82.9696 40.0647 83.0374 39.4498C83.0974 38.8951 83.1209 38.3482 83.0713 37.7909C82.9722 36.6736 82.5627 35.7133 81.7202 34.9519C80.9377 34.2454 79.9257 33.921 78.9162 34.3135C77.8912 34.7138 77.3147 35.5616 77.6408 36.6762C77.9068 37.5894 78.8797 37.974 79.7561 37.7935C80.2908 37.6836 80.6586 37.3722 80.8725 36.8725C80.9768 36.6317 81.0499 36.3805 81.0629 36.1163C81.0733 35.9645 80.9534 35.572 81.0368 35.4203C81.0368 35.4543 81.1568 35.4177 81.1046 35.3993C81.4594 35.47 81.7463 36.0613 81.908 36.3335C82.148 36.7442 82.3071 37.2335 82.3488 37.7071C82.4323 38.6543 82.414 39.6382 81.955 40.4912C81.715 40.9386 81.3342 40.6743 81.0159 40.4493C80.6377 40.185 80.2647 39.9234 79.8552 39.7088C78.9006 39.2117 77.959 38.7511 76.9391 38.4005C76.4018 38.2148 75.8619 38.0394 75.3141 37.8929C74.7507 37.7412 74.8472 37.3277 74.7872 36.8332C74.6464 35.6819 74.2238 34.5777 73.6422 33.5835C73.0344 32.5421 72.398 31.5425 71.6755 30.577C70.9347 29.588 70.1418 28.6382 69.4271 27.6308C69.281 27.4241 68.5272 26.4847 68.7646 26.2283C68.9367 26.0399 69.521 26.3408 69.7114 26.3905C70.7626 26.6601 71.845 26.7699 72.9249 26.8223C75.3376 26.94 77.8416 26.5763 80.1317 25.8018C84.1825 24.4334 88.421 21.495 88.7549 16.8454C88.9166 14.6265 88.468 12.3449 87.1716 10.5107C85.8779 8.67911 83.9138 7.49904 81.8011 6.8606C80.6743 6.51783 79.5083 6.31112 78.3398 6.1646C77.14 6.01284 75.8645 5.91079 74.6568 5.96312C73.47 6.01807 72.2519 6.05732 71.0964 6.33991C70.5226 6.47858 69.9566 6.544 69.3906 6.72192C68.8507 6.88938 68.282 7.00974 67.7551 7.21907C66.6231 7.67173 65.525 8.13748 64.4556 8.72882C63.4305 9.29661 62.4289 9.90365 61.4638 10.5683C60.4805 11.2459 59.5284 11.9786 58.626 12.7609C58.4695 12.8944 57.8565 13.6218 57.6609 13.2476C57.5148 12.9703 57.5774 12.5699 57.567 12.2664C57.4783 9.9272 58.2425 7.6351 59.7293 5.81921C60.4335 4.95837 61.2421 4.08182 62.1863 3.48263C62.708 3.15556 63.2114 2.80233 63.7592 2.51974C64.2495 2.26593 64.7712 2.07493 65.2798 1.85775C67.3795 0.973357 69.761 0.714319 72.0172 0.821597C72.5727 0.847763 73.1779 1.00737 73.6917 1.2167C74.1143 1.38939 74.4847 1.8656 74.9646 1.62226C75.8019 1.19838 76.6965 1.38416 77.5703 1.12512C77.7164 1.08325 77.959 0.947192 77.8129 0.7588C77.6955 0.60704 77.4269 0.575641 77.2547 0.536393C76.7409 0.416032 76.2244 0.327069 75.7002 0.248572C74.4482 0.0654136 73.1988 0.0209322 71.9337 0.0026163C69.5653 -0.0340154 67.2204 0.31137 65.0138 1.20623C62.8436 2.08539 60.8144 3.25499 59.2859 5.07873C58.5503 5.96051 57.9973 6.94695 57.5774 8.01188C57.1653 9.05589 57.0192 10.2019 56.8992 11.3061C56.8366 11.8844 56.8184 12.4496 56.8575 13.0304C56.8836 13.4334 57.0505 13.9776 56.8158 14.3439C56.4976 14.8411 56.015 15.2597 55.6185 15.6941C55.2742 16.0709 55.016 16.5209 54.7056 16.9291C53.9701 17.8946 53.3023 18.9334 52.7676 20.0245C52.2277 21.126 51.8364 22.2512 51.4478 23.4129C50.6627 25.7521 50.5114 28.2091 50.6105 30.6581C50.6601 31.8539 50.8714 33.0392 51.1661 34.1957C51.4504 35.3104 51.7999 36.4433 52.2746 37.4926C50.3993 37.3827 48.4926 37.2728 47.8926 37.6862C47.9318 37.66 51.5339 42.4379 49.8567 45.6327C47.9996 43.9555 42.5742 39.1803 45.0704 37.333C47.0006 35.907 49.4185 33.1962 48.3647 30.5535C47.2849 27.8375 43.5158 28.5178 41.87 30.2081C38.6539 33.4866 42.8455 36.9824 40.0233 39.4053C39.6816 39.701 39.379 40.0097 39.1156 40.3289C39.2434 39.9155 39.3295 39.489 39.3634 39.0416C39.4573 37.8249 39.3842 36.6527 39.1182 35.4621C38.8678 34.3396 38.3565 33.3218 37.7671 32.3432C37.1724 31.362 36.4159 30.5927 35.4639 29.9569C34.4753 29.2949 33.4842 28.926 32.3156 28.7428C30.062 28.3896 27.6258 28.9469 25.8235 30.3677C25.0957 30.9381 24.3706 31.8618 24.1672 32.7854C24.1307 32.9476 24.0394 33.4579 24.3576 33.3741C24.7332 33.2747 25.0905 32.7409 25.3827 32.495C26.1991 31.8199 27.1016 31.3855 28.1423 31.1893C29.2352 30.9878 30.3959 30.8884 31.4992 31.0454C32.5113 31.1893 33.445 31.7649 34.1675 32.4819C34.9266 33.2355 35.6491 34.3161 35.9282 35.3627C36.4916 37.4743 36.369 39.8475 35.7221 41.9355C35.55 42.4876 35.3283 43.092 34.9787 43.5578C34.8588 43.7174 34.7283 43.945 34.5353 44.0209C34.311 44.1125 34.1597 43.8901 34.0319 43.7435C33.6198 43.2699 33.2181 42.7911 32.7721 42.3489C32.4695 42.0506 31.8279 41.6765 31.9818 41.1767C32.1643 40.5932 32.3756 40.0542 32.4434 39.4393C32.506 38.8846 32.5269 38.3377 32.4773 37.7804C32.3782 36.6631 31.9687 35.7029 31.1236 34.9414C30.3437 34.235 29.3291 33.9105 28.3223 34.303C27.2946 34.7033 26.7207 35.5511 27.0442 36.6658C27.3128 37.5789 28.2831 37.9636 29.1621 37.783C29.6969 37.6731 30.0646 37.3618 30.2785 36.862C30.3828 36.6213 30.4533 36.3701 30.4689 36.1058C30.4767 35.9541 30.3594 35.5616 30.4402 35.4098C30.4402 35.4438 30.5628 35.4072 30.508 35.3889C30.8628 35.4595 31.1523 36.0509 31.3114 36.323C31.554 36.7338 31.7105 37.2205 31.7548 37.6967C31.8357 38.6439 31.8174 39.6277 31.3584 40.4807C31.1184 40.9281 30.7376 40.6638 30.422 40.4388C30.0438 40.1746 29.6708 39.9129 29.2587 39.6983C28.304 39.2012 27.3624 38.7407 26.3425 38.3901C25.8026 38.2043 25.2653 38.029 24.7149 37.8824C24.1515 37.7333 24.2506 37.3173 24.1906 36.8227C24.0472 35.6715 23.6272 34.5673 23.0456 33.5704C22.4378 32.529 21.8014 31.5295 21.0763 30.564C20.3381 29.5749 19.5452 28.6251 18.8279 27.6177C18.6844 27.411 17.9306 26.4717 18.168 26.2152C18.3401 26.0268 18.9244 26.3278 19.1148 26.3775C20.166 26.647 21.2458 26.7569 22.3257 26.8092C24.7384 26.9269 27.2424 26.5632 29.5325 25.7887C33.5859 24.4203 37.8218 21.4819 38.1583 16.8323C38.3174 14.6134 37.8688 12.3318 36.5724 10.4976C35.2813 8.66602 33.3146 7.48596 31.2019 6.84752C30.0725 6.50475 28.9091 6.29804 27.7406 6.15151C26.5408 5.99975 25.2653 5.89771 24.0576 5.95004C22.8708 6.00499 21.6527 6.04424 20.4972 6.32682C19.9234 6.4655 19.3574 6.53092 18.7914 6.70884C18.2488 6.8763 17.6828 6.99666 17.1559 7.20599C16.0239 7.65865 14.9258 8.1244 13.8564 8.71574C12.8313 9.28353 11.8297 9.89057 10.8646 10.5552C9.88129 11.2329 8.92924 11.9655 8.02676 12.7478C7.87026 12.8813 7.2599 13.6087 7.06167 13.2345C6.9156 12.9572 6.98081 12.5568 6.96777 12.2533C6.87909 9.91412 7.64594 7.62202 9.13008 5.80613C9.83434 4.94528 10.6429 4.06874 11.5898 3.46955C12.1088 3.14248 12.6148 2.78925 13.1626 2.50666C13.6556 2.25285 14.1746 2.06184 14.6859 1.84467C16.7882 0.973357 19.1696 0.714319 21.4284 0.821597C21.9814 0.847763 22.5865 1.00737 23.1004 1.2167C23.5229 1.38939 23.8933 1.8656 24.3732 1.62226C25.2131 1.19838 26.1052 1.38416 26.979 1.12512C27.125 1.08325 27.3676 0.947192 27.2215 0.7588C27.1042 0.60704 26.8355 0.575641 26.666 0.536393C26.1495 0.416032 25.6331 0.327069 25.1114 0.248572C23.8594 0.0654136 22.61 0.0209322 21.3476 0.0026163C18.9766 -0.0340154 16.6317 0.31137 14.4276 1.20623C12.2549 2.08539 10.2282 3.25499 8.69971 5.07873C7.96155 5.96051 7.41119 6.94695 6.98864 8.01188C6.57652 9.05589 6.43045 10.2019 6.31308 11.3061C6.25308 11.8844 6.23222 12.4496 6.27134 13.0304C6.29743 13.4334 6.46697 13.9776 6.22961 14.3439C5.914 14.8411 5.42624 15.2597 5.03238 15.6941C4.68808 16.0709 4.43246 16.5209 4.12207 16.9291C3.38391 17.8946 2.71878 18.9334 2.18147 20.0245C1.64154 21.126 1.2529 22.2512 0.864253 23.4129C0.0791429 25.7521 -0.0721409 28.2091 0.0269761 30.6581C0.0765345 31.8539 0.28781 33.0392 0.585161 34.1957C0.874687 35.3313 1.23203 36.4904 1.7224 37.5554C2.2232 38.6465 2.70313 39.7219 3.31088 40.7607C3.52998 41.1322 4.02556 41.6372 3.64474 42.0506C3.28479 42.4431 2.89615 42.7885 2.57011 43.215C1.92585 44.0575 1.3155 45.0256 1.21899 46.1063C1.12509 47.1607 1.3181 48.2414 2.04322 49.0447C3.64996 50.8213 6.19048 51.1013 8.45452 50.9731C9.58394 50.9103 10.7368 50.7768 11.8219 50.4471C12.3801 50.2771 12.9539 50.1044 13.4912 49.882C13.9555 49.6883 14.4746 49.3168 14.9858 49.5183C17.1194 50.3686 19.5661 50.6748 21.8457 50.6879C24.1541 50.7009 26.5851 50.3399 28.7761 49.5994C29.9238 49.2147 31.0349 48.7281 32.06 48.0739C32.5791 47.7416 33.2755 47.2288 33.745 46.8311L35.4795 46.7918C35.3152 46.2659 35.67 45.2088 35.9908 44.8791C36.6272 44.2302 37.2689 43.5394 37.8192 42.7963C36.502 47.514 40.9336 52.6738 46.5493 49.9683C47.5509 49.479 48.7977 48.6574 49.5776 47.8646C50.2845 48.4481 52.7598 49.636 54.2622 50.2509C54.2622 50.2509 54.2622 50.2509 54.2648 50.2535C54.4657 50.3477 54.6691 50.4341 54.8804 50.5073C56.1872 50.9757 57.6661 51.0516 59.0433 50.9731C60.1727 50.9103 61.3256 50.7768 62.4107 50.4471C62.9688 50.2771 63.5401 50.1044 64.08 49.882C64.5443 49.6883 65.0633 49.3168 65.5772 49.5183C67.7082 50.3686 70.1574 50.6748 72.4345 50.6879C74.7429 50.7009 77.1765 50.3399 79.3675 49.5994C80.5152 49.2147 81.6263 48.7281 82.6488 48.0739C83.1678 47.7416 83.8643 47.2288 84.3364 46.8311L86.0683 46.7918C85.9066 46.2659 86.2561 45.2088 86.5822 44.8791C88.1654 43.2621 89.7826 41.4148 89.9626 39.0442C90.0539 37.8354 89.9808 36.6631 89.7148 35.4726ZM22.31 43.3458C22.5683 43.0344 22.7795 42.6734 22.9752 42.3201C23.3951 41.5666 23.7446 40.7371 23.9429 39.8946C23.9429 39.8893 23.9455 39.8867 23.9455 39.8789C23.9455 39.8763 23.9455 39.8763 23.9455 39.8763C23.9455 39.8763 23.9481 39.8658 23.9507 39.8501C23.9533 39.837 23.9559 39.8239 23.9585 39.8135C23.9585 39.8109 23.9585 39.8109 23.9585 39.8109C23.9611 39.803 23.9637 39.7925 23.9663 39.7847V39.7821C24.0602 39.3765 24.175 39.1201 24.6575 39.3032C25.0749 39.4602 25.5157 39.5544 25.9487 39.6617C26.8303 39.8841 27.7536 40.2504 28.5596 40.6665C29.0109 40.8967 29.4386 41.1688 29.8612 41.454C30.1403 41.6424 30.4611 41.8832 30.1716 42.2207C29.5925 42.8827 28.857 43.304 28.0771 43.6912C27.2241 44.1125 26.2617 44.2459 25.3201 44.2747C24.8193 44.2878 24.3158 44.2381 23.815 44.2197C23.3429 44.2014 22.8682 44.1857 22.4065 44.0732C21.9214 43.9476 22.0518 43.6572 22.31 43.3458ZM20.9067 40.4938C20.8754 41.3285 20.6824 42.1684 20.3355 42.9298C20.1373 43.3667 19.9208 43.4269 19.4826 43.2176C19.0887 43.0318 18.6844 42.8748 18.2958 42.676C16.5795 41.7994 14.978 40.7737 13.6243 39.387C13.0452 38.793 13.9946 38.7825 14.4094 38.7067C15.364 38.5261 16.3213 38.5444 17.2864 38.5078C17.2968 38.5078 17.3098 38.5052 17.3203 38.5052C17.3333 38.5052 17.349 38.5052 17.3646 38.5026C17.3829 38.5026 17.4011 38.5 17.4194 38.5C17.4298 38.4973 17.4403 38.4973 17.4507 38.4973H17.4585C17.4716 38.4973 17.4846 38.4947 17.4924 38.4947C17.5107 38.4921 17.5185 38.4921 17.5185 38.4921C18.0115 38.4712 18.4992 38.4319 18.9948 38.4398C19.48 38.445 20.0303 38.4136 20.5051 38.5261C21.0893 38.6753 20.925 40.0463 20.9067 40.4938ZM18.734 33.7692C19.3626 34.7452 20.0512 35.7447 20.3981 36.8646C20.599 37.5214 19.7669 37.2885 19.3652 37.2859C18.7679 37.2806 18.1706 37.3042 17.5733 37.3408C16.4204 37.4141 15.2597 37.5083 14.1172 37.6914C13.8147 37.7412 13.5147 37.7961 13.2174 37.8589C12.9983 37.906 12.7765 38.0368 12.5496 37.9531C12.2288 37.8354 11.9888 37.1891 11.8454 36.9091C11.3263 35.8939 10.969 34.8028 10.6899 33.7038C10.5334 33.0915 10.4786 32.4374 10.3873 31.8094C10.3012 31.2102 10.3117 30.6006 10.3612 29.9962C10.5308 27.8297 10.8125 25.4983 12.1219 23.6929C12.1271 23.685 12.1323 23.6798 12.1375 23.672C12.1584 23.6406 12.1688 23.6301 12.1688 23.6301C12.1688 23.6301 12.1688 23.6301 12.1688 23.6275C12.5496 23.1303 12.9878 23.5908 13.3947 23.8603C13.8512 24.1639 14.3076 24.4935 14.798 24.7395C15.0067 24.8442 15.2336 24.9619 15.2545 25.2236C15.2753 25.48 15.218 25.7443 15.218 26.0007C15.2232 26.558 15.2988 27.1284 15.4397 27.6674C15.724 28.7611 16.3187 29.7528 16.8586 30.734C17.435 31.7833 18.0897 32.7697 18.734 33.7692ZM9.3231 30.6581C9.44048 33.0523 10.2621 35.2502 11.1959 37.4298C11.3889 37.8798 11.6393 38.2566 11.0342 38.4319C10.7133 38.5261 10.0978 38.9134 9.80304 38.6413C9.48221 38.3482 9.30224 37.804 9.1353 37.4167C8.92403 36.9248 8.7284 36.425 8.61624 35.9017C8.13109 33.6332 7.94851 31.2338 8.37888 28.9443C8.76753 26.8746 9.73 24.6846 11.1515 23.112C11.1568 23.1068 11.1672 23.0989 11.1776 23.0858C11.1933 23.0675 11.2089 23.0518 11.2089 23.0518C11.3341 22.9236 11.6941 22.5887 11.7671 22.8791C11.8219 23.1042 11.5845 23.3946 11.4724 23.5647C10.9977 24.2842 10.6247 24.9907 10.2986 25.7914C9.68045 27.3037 9.24224 29.0097 9.3231 30.6581ZM7.53117 14.4826C7.8833 14.098 8.31628 13.7631 8.69971 13.4098C9.5422 12.6353 10.4708 11.9184 11.4046 11.2564C11.9001 10.9058 12.4166 10.5892 12.92 10.249C13.3973 9.9272 13.9086 9.69956 14.412 9.42482C16.5247 8.26569 18.8305 7.43624 21.2093 7.05161C22.3778 6.86322 23.5203 6.74809 24.7097 6.76379C25.7896 6.77687 26.8251 6.92078 27.8867 7.08824C30.1194 7.43886 32.4121 8.44362 34.045 10.0345C34.8509 10.8168 35.5187 11.764 35.9517 12.8002C36.3846 13.8389 36.5203 15.0373 36.502 16.1572C36.4681 18.2792 35.683 20.2809 34.2667 21.8587C32.7225 23.5725 30.4402 24.6872 28.231 25.2393C25.8835 25.8254 23.4629 25.9876 21.058 25.7443C20.4659 25.6841 19.9025 25.5742 19.3183 25.4617C18.9166 25.3858 18.3975 25.2497 18.0402 25.0483C17.6124 24.8075 17.8602 24.1037 17.9437 23.7321C18.061 23.2245 18.2671 22.7928 18.541 22.3558C18.8331 21.8875 19.24 21.4714 19.4956 20.9848C19.7199 20.5556 19.4122 20.3646 18.9948 20.5085C18.0141 20.8513 17.0751 21.5918 16.436 22.4003C16.0891 22.8399 15.917 23.3475 15.6509 23.8289C15.4058 24.279 14.9336 23.9258 14.6024 23.7609C14.1407 23.5307 13.6373 23.2873 13.2121 22.9864C12.8287 22.7117 13.1574 22.3925 13.4156 22.17C15.0562 20.7362 17.0594 19.7968 19.2139 19.4541C19.4643 19.4148 19.7721 19.3285 20.0043 19.4829C20.1921 19.6084 20.312 19.8125 20.4712 19.9695C20.8207 20.3201 21.2276 20.6341 21.6527 20.8879C22.5996 21.4479 23.7681 21.6467 24.8506 21.6651C26.0765 21.686 27.2346 21.3903 28.3562 20.9036C29.3969 20.4536 30.4194 19.8649 31.168 18.9962C31.3088 18.8339 31.9244 18.028 31.374 17.9836C31.0532 17.9574 30.688 18.2034 30.3881 18.2949C29.3708 18.5985 28.2179 18.5069 27.245 18.0987C26.3556 17.7245 25.3096 17.1123 24.9575 16.152C24.5923 15.1394 25.2757 14.6762 25.933 14.0797C25.933 14.0797 25.9356 14.0771 25.9382 14.0771V14.0744H25.9408C25.9461 14.0692 25.9487 14.064 25.9539 14.0587C26.2721 13.7709 25.8991 13.7421 25.6461 13.8285C25.4035 13.9096 25.174 14.0143 24.9575 14.1451C24.4958 14.4277 24.1411 14.8202 23.7238 15.1551C22.8082 15.8851 21.6162 16.3221 20.5468 16.7616C19.3835 17.2352 18.241 17.7585 17.109 18.3028C16.0396 18.8156 14.9571 19.3128 13.9425 19.925C13.4182 20.2417 12.8965 20.553 12.3983 20.9141C12.0645 21.1548 11.5741 21.6912 11.1698 21.3223C10.3664 20.5923 9.65436 19.6268 9.06227 18.7214C8.74666 18.24 8.39453 17.7219 8.18326 17.1829C7.98502 16.6805 8.43627 16.3901 8.77796 16.1101C9.56046 15.4664 10.4238 14.9274 11.3498 14.5219C11.8271 14.3125 12.3044 14.1242 12.8157 14.0143C12.9774 13.9776 13.5251 13.784 13.6399 13.9698C13.7234 14.1085 13.5564 14.3753 13.5173 14.5062C13.4417 14.7574 13.4208 15.0269 13.4625 15.2833C13.533 15.7072 13.7521 16.1389 14.099 16.3953C14.8789 16.971 16.1022 16.8584 16.6238 15.995C17.1455 15.1341 16.9916 14.0797 16.183 13.4569C15.3327 12.8002 14.0572 13.0017 13.0817 13.2057C12.7974 13.2659 12.4844 13.2659 12.2184 13.3837C11.9758 13.4883 11.7436 13.6113 11.4985 13.7055C10.9559 13.9174 10.4629 14.221 9.95954 14.5062C9.46134 14.7914 9.01271 15.1001 8.56147 15.4534C8.30846 15.6496 7.84417 16.2122 7.6016 15.7359C7.41901 15.3775 7.2286 14.8123 7.53117 14.4826ZM1.44591 29.6979C1.44591 29.7057 1.44331 29.7136 1.44331 29.7188C1.44331 29.7267 1.4407 29.7345 1.4407 29.7424C1.4407 29.745 1.4407 29.745 1.4407 29.745C1.4407 29.7502 1.4407 29.7554 1.43809 29.7607V29.7738C1.43809 29.779 1.43548 29.7842 1.43548 29.7868V29.7921C1.43548 29.7947 1.43548 29.7947 1.43548 29.7947C1.43548 29.7999 1.43287 29.8025 1.43287 29.8078V29.8104C1.4094 30.1427 1.39114 30.4907 1.2529 30.7968C1.03901 30.5038 1.11987 29.9595 1.10944 29.6194C1.0964 29.1589 1.02597 28.7193 1.04162 28.2509C1.0677 27.3482 1.21638 26.469 1.32332 25.5716C1.60241 23.2821 2.5675 21.058 3.68909 19.0721C4.28118 18.0228 4.99586 17.0285 5.79402 16.1232C5.92443 15.9741 6.44089 15.1708 6.64955 15.5685C6.73302 15.7307 6.75128 15.9191 6.81127 16.0892C6.88691 16.2959 7.00168 16.5131 6.90256 16.7329C6.77475 17.0076 6.51392 17.2483 6.33394 17.4864C6.15658 17.7193 5.97921 17.9548 5.80445 18.1929C5.46276 18.656 5.12628 19.1165 4.82893 19.6111C4.20815 20.6498 3.70995 21.7331 3.21959 22.8347C2.74226 23.9101 2.39796 25.0378 2.13712 26.1838C1.87629 27.3456 1.53721 28.5152 1.44591 29.6979ZM3.67344 39.5466C3.40217 39.0468 3.15438 38.5314 2.97179 37.9923C2.21277 35.7735 2.03279 33.3453 2.14234 31.0166C2.19972 29.8182 2.33275 28.5858 2.60402 27.4162C2.86485 26.299 3.19089 25.1582 3.62127 24.0985C4.08816 22.9498 4.46637 21.788 5.11063 20.7179C5.69229 19.7602 6.22439 18.7764 6.98864 17.9496C7.0069 17.9286 7.02515 17.9129 7.04341 17.8946C7.05645 17.8815 7.05645 17.8789 7.05645 17.8789C7.39554 17.5257 7.58073 17.7507 7.77114 18.1249C8.01111 18.5985 8.33454 19.0197 8.64493 19.4488C8.96576 19.891 9.3231 20.3044 9.68566 20.7126C9.99866 21.0659 10.429 21.3903 10.6794 21.7907C10.9038 22.1465 10.3195 22.5756 10.0952 22.7771C9.67784 23.1565 9.35179 23.6013 8.99706 24.033C8.31367 24.8703 7.68506 25.7469 7.17383 26.7019C5.13411 30.543 3.90558 34.8891 5.08716 39.1986C5.16541 39.4864 5.23844 39.7795 5.34799 40.0594C5.41842 40.2373 5.53318 40.4833 5.43407 40.6717C5.29061 40.9491 4.84197 41.2186 4.57592 40.9569C4.1951 40.5853 3.92384 40.0071 3.67344 39.5466ZM12.847 49.0891C12.4009 49.3613 11.8871 49.5052 11.3967 49.6779C10.2517 50.0808 9.02053 50.209 7.81287 50.243C6.02616 50.2954 3.54302 49.9264 2.44752 48.3225C1.10422 46.3548 2.53359 43.9293 4.18989 42.6864C4.65939 42.3332 5.05846 43.0763 5.33495 43.3772C5.71837 43.7932 6.12528 44.1831 6.54522 44.5625C7.37206 45.3082 8.1963 46.0958 9.11965 46.7264C9.12748 46.7316 9.1353 46.7369 9.14574 46.7421C9.16399 46.7552 9.2292 46.797 9.23964 46.8049C9.24224 46.8075 9.24224 46.8075 9.24485 46.8075L9.25789 46.8154C9.49004 46.9828 9.70914 47.1974 10.0143 47.1948C10.056 46.8991 9.59176 46.606 9.39614 46.4595C9.10922 46.2423 8.80926 46.0435 8.54321 45.8028C7.91981 45.2428 7.35641 44.6567 6.80605 44.0261C6.32351 43.4766 5.74185 42.8408 5.42102 42.1788C5.29322 41.9146 5.47841 41.6843 5.72881 41.5953C5.96878 41.509 6.1331 41.789 6.22961 41.9564C6.96777 43.2307 7.93546 44.4291 8.95793 45.4835C10.0221 46.5851 11.1881 47.5401 12.4948 48.3408C12.7844 48.5161 13.3504 48.783 12.847 49.0891ZM17.229 46.2554C16.7803 46.1795 16.2926 45.8315 15.9092 45.5987C15.0041 45.0597 14.1694 44.4029 13.4599 43.6206C12.7374 42.8225 12.0619 41.9747 11.4254 41.1034C11.1542 40.7319 10.7864 40.3315 10.6038 39.9077C10.4473 39.5413 10.8829 39.4838 11.1463 39.4157L11.1515 39.4131C11.1542 39.4105 11.1542 39.4105 11.1542 39.4131L11.1568 39.4105L11.1724 39.4079C11.1802 39.4053 11.1881 39.4027 11.1985 39.4001C11.2194 39.3922 11.235 39.3896 11.2481 39.387C11.2507 39.3844 11.2559 39.3844 11.2611 39.3817C11.2637 39.3817 11.2663 39.3791 11.2715 39.3791C11.2768 39.3765 11.2794 39.3765 11.2794 39.3765C11.668 39.2509 12.1532 39.0573 12.4896 39.3765C12.8209 39.6931 13.1261 40.0333 13.4625 40.3446C14.2346 41.0616 15.0406 41.7314 15.9066 42.3358C16.7725 42.9402 17.6828 43.4845 18.6244 43.9659C18.854 44.0811 19.5269 44.3061 19.3157 44.6619C19.1096 45.0099 18.7079 45.3318 18.4132 45.6013C18.108 45.876 17.6776 46.3313 17.229 46.2554ZM28.5492 47.7573C27.944 48.4245 26.7442 48.3094 25.9382 48.2911C24.814 48.2649 23.6768 48.2126 22.5683 48.0164C21.4754 47.8201 20.3799 47.5166 19.3339 47.1424C19.2139 47.1006 18.8827 47.0195 18.8722 46.8546C18.8592 46.6715 19.1931 46.4857 19.3078 46.3915C19.6886 46.0749 20.0695 45.7583 20.4372 45.4338L20.4399 45.4312C20.4425 45.4286 20.4451 45.426 20.4477 45.4234C20.4503 45.4207 20.4503 45.4207 20.4503 45.4207C20.4503 45.4207 20.4685 45.4077 20.4842 45.3893C20.4998 45.3763 20.5155 45.3606 20.5311 45.3475L20.5338 45.3449C20.938 44.9995 21.2067 44.9393 21.7597 45.0466C22.297 45.1512 22.8473 45.1852 23.3951 45.214C24.4384 45.269 25.4896 45.269 26.5277 45.0963C26.6399 45.0754 27.4876 44.8032 27.3076 45.1617C27.1381 45.5045 26.8512 46.3339 27.3728 46.067C28.0171 45.7478 29.3734 46.8546 28.5492 47.7573ZM33.0538 45.0963C32.7251 45.2166 32.3261 45.248 31.9791 45.248C31.0662 45.248 30.1977 44.7797 29.3004 44.6305C29.2926 44.6305 29.2847 44.6279 29.2795 44.6279C29.2769 44.6279 29.2769 44.6279 29.2769 44.6279C29.2665 44.6253 29.2587 44.6253 29.2508 44.6253C29.2482 44.6253 29.2482 44.6253 29.2482 44.6253C29.2456 44.6227 29.2456 44.6227 29.2456 44.6227H29.2404C29.2378 44.6227 29.2326 44.6201 29.2273 44.6201C29.05 44.5939 28.8596 44.5808 28.7083 44.4709C28.8335 44.2354 29.0891 44.1282 29.3056 43.9973C29.5404 43.856 29.7699 43.7043 29.9942 43.5447C30.3489 43.2909 30.6385 42.9481 30.9906 42.7021C31.3531 42.451 31.7079 42.9402 31.9348 43.1705C32.2948 43.5394 32.6234 43.9398 32.9834 44.3061C33.2364 44.5547 33.5207 44.9236 33.0538 45.0963ZM42.3864 31.9743C42.389 31.9664 42.389 31.9612 42.3916 31.9507V31.9481C42.3943 31.9403 42.3943 31.9324 42.3969 31.9219C42.3995 31.9062 42.4047 31.8879 42.4073 31.8722V31.8696L42.4125 31.8487C42.4151 31.8461 42.4151 31.8434 42.4151 31.8408C43.4245 27.6465 50.1436 33.3375 43.4454 37.2937C42.6681 35.6793 42.016 33.7875 42.3864 31.9743ZM47.6657 48.0661C47.6631 48.0687 47.6605 48.0687 47.6579 48.0713C47.6422 48.0818 47.6292 48.0896 47.6188 48.0975C47.6135 48.1001 47.6109 48.1027 47.6057 48.1053C47.5796 48.1236 47.5718 48.1263 47.5718 48.1263C41.7291 51.758 37.0263 43.304 41.9821 39.1776C43.5784 42.2913 45.9103 45.0963 48.4926 47.425C48.2161 47.637 47.9422 47.8515 47.6657 48.0661ZM72.9014 43.3458C73.1596 43.0344 73.3683 42.6734 73.5665 42.3201C73.9865 41.5666 74.336 40.7371 74.5316 39.8946C74.5316 39.892 74.5316 39.8893 74.5342 39.8867C74.5368 39.8841 74.5368 39.8763 74.5368 39.8658C74.542 39.8553 74.542 39.8423 74.5473 39.8318C74.5473 39.8239 74.5499 39.8187 74.5499 39.8109C74.5525 39.7978 74.5551 39.7847 74.5603 39.7742C74.5603 39.7716 74.5629 39.769 74.5629 39.769C74.6542 39.3687 74.7742 39.1148 75.2515 39.298C75.6689 39.455 76.1097 39.5492 76.54 39.6565C77.4217 39.8789 78.3424 40.2452 79.151 40.6612C79.6022 40.8915 80.03 41.1636 80.4499 41.4488C80.729 41.6372 81.0499 41.8779 80.7577 42.2155C80.1787 42.8775 79.4457 43.2987 78.6658 43.686C77.8129 44.1072 76.8504 44.2407 75.9062 44.2695C75.4054 44.2825 74.9046 44.2328 74.4012 44.2145C73.9317 44.1962 73.4544 44.1805 72.9953 44.068C72.5128 43.9476 72.6432 43.6572 72.9014 43.3458ZM71.4981 40.4938C71.4668 41.3285 71.2712 42.1684 70.9269 42.9298C70.726 43.3667 70.5096 43.4269 70.0714 43.2176C69.6775 43.0318 69.2758 42.8748 68.8846 42.676C67.1709 41.7994 65.5668 40.7737 64.2156 39.387C63.6366 38.793 64.586 38.7825 64.9981 38.7067C65.9554 38.5261 66.91 38.5444 67.8777 38.5078C67.8882 38.5078 67.9012 38.5052 67.9116 38.5052C67.9247 38.5052 67.9403 38.5052 67.956 38.5026C67.9742 38.5026 67.9925 38.5 68.0108 38.5C68.0212 38.4973 68.029 38.4973 68.0421 38.4973H68.0499C68.0629 38.4973 68.076 38.4947 68.0838 38.4947C68.1021 38.4921 68.1099 38.4921 68.1099 38.4921C68.6029 38.4712 69.0906 38.4319 69.5862 38.4398C70.0714 38.445 70.6217 38.4136 71.0964 38.5287C71.6781 38.6753 71.5138 40.0463 71.4981 40.4938ZM69.3254 33.7692C69.954 34.7452 70.6426 35.7447 70.9869 36.8646C71.1903 37.5214 70.3557 37.2885 69.954 37.2859C69.3567 37.2806 68.762 37.3042 68.1647 37.3408C67.0118 37.4141 65.8511 37.5083 64.7086 37.6914C64.406 37.7412 64.1061 37.7961 63.8087 37.8589C63.5896 37.906 63.3705 38.0368 63.1384 37.9531C62.8202 37.8354 62.5802 37.1891 62.4367 36.9091C61.9177 35.8939 61.5603 34.8028 61.2812 33.7038C61.1247 33.0915 61.0674 32.4374 60.9787 31.8094C60.8926 31.2102 60.903 30.6006 60.95 29.9962C61.1195 27.8454 61.396 25.5349 62.6819 23.7321C62.6924 23.719 62.7002 23.706 62.7132 23.6903C62.7158 23.6876 62.7158 23.6877 62.7158 23.6877L62.7497 23.6406C63.1358 23.1199 63.5792 23.5856 63.9887 23.8603C64.4478 24.1639 64.9042 24.4935 65.3946 24.7395C65.6033 24.8442 65.8302 24.9619 65.8511 25.2236C65.8693 25.48 65.8119 25.7443 65.8145 26.0007C65.8198 26.558 65.8954 27.1284 66.0336 27.6674C66.3206 28.7611 66.9153 29.7528 67.4526 30.734C68.0264 31.7833 68.6785 32.7697 69.3254 33.7692ZM59.9145 30.6581C60.0319 33.0523 60.8535 35.2502 61.7873 37.4298C61.9803 37.8798 62.2307 38.2566 61.6256 38.4319C61.3047 38.5261 60.6892 38.9134 60.3944 38.6413C60.0762 38.3482 59.8936 37.804 59.7267 37.4167C59.518 36.9248 59.3224 36.425 59.2076 35.9017C58.7251 33.6332 58.5425 31.2338 58.9703 28.9443C59.3589 26.8746 60.3214 24.6872 61.7403 23.1172C61.7429 23.1146 61.7455 23.112 61.7481 23.1094C61.7508 23.1068 61.7508 23.1068 61.756 23.1015C61.7638 23.0937 61.7742 23.0806 61.782 23.0728C61.782 23.0728 61.782 23.0728 61.782 23.0701L61.7847 23.0675C61.7873 23.0649 61.7899 23.0623 61.7925 23.0597C61.7951 23.0571 61.7977 23.0518 61.7977 23.0518C61.7977 23.0518 61.8003 23.0518 61.8003 23.0492C61.8029 23.0466 61.8029 23.0466 61.8029 23.0466C61.9307 22.9184 62.2907 22.5835 62.3611 22.8739C62.4159 23.0989 62.1785 23.3894 62.069 23.5594C61.5916 24.279 61.2213 24.9855 60.8952 25.7861C60.2718 27.3037 59.831 29.0097 59.9145 30.6581ZM58.1199 14.4826C58.4721 14.098 58.9024 13.7631 59.2885 13.4098C60.131 12.6353 61.0595 11.9184 61.9933 11.2564C62.4889 10.9058 63.0054 10.5892 63.5062 10.249C63.9835 9.9272 64.4973 9.69956 64.9981 9.42482C67.1109 8.26569 69.4167 7.43624 71.7955 7.05161C72.964 6.86322 74.1065 6.74809 75.2959 6.76379C76.3757 6.77687 77.4112 6.92078 78.4728 7.08824C80.7029 7.43886 82.9983 8.44362 84.6337 10.0345C85.4397 10.8168 86.1074 11.764 86.5404 12.8002C86.976 13.8389 87.109 15.0373 87.0908 16.1572C87.0569 18.2792 86.2718 20.2809 84.8554 21.8587C83.3139 23.5725 81.029 24.6872 78.8223 25.2393C76.4748 25.8254 74.0517 25.9876 71.6494 25.7443C71.0573 25.6841 70.4939 25.5742 69.907 25.4617C69.5079 25.3858 68.9889 25.2497 68.6289 25.0483C68.2012 24.8075 68.449 24.1037 68.5324 23.7321C68.6472 23.2245 68.8559 22.7928 69.1297 22.3558C69.4219 21.8875 69.8288 21.4714 70.0844 20.9848C70.3087 20.5556 70.0035 20.3646 69.5862 20.5085C68.6055 20.8513 67.6665 21.5918 67.0274 22.4003C66.6805 22.8399 66.5084 23.3475 66.2423 23.8289C65.9971 24.279 65.525 23.9258 65.1938 23.7609C64.7295 23.5307 64.2261 23.2873 63.8035 22.9864C63.4201 22.7117 63.7487 22.3925 64.007 22.17C65.6476 20.7362 67.6508 19.7968 69.8053 19.4541C70.0557 19.4148 70.3635 19.3285 70.593 19.4829C70.7808 19.6084 70.9008 19.8125 71.0599 19.9695C71.4068 20.3201 71.8163 20.6341 72.2415 20.8879C73.1857 21.4479 74.3543 21.6467 75.4393 21.6651C76.6652 21.686 77.8233 21.3903 78.9423 20.9036C79.983 20.4536 81.0081 19.8649 81.7567 18.9962C81.8976 18.8339 82.5105 18.028 81.9628 17.9836C81.6446 17.9574 81.2794 18.2034 80.9794 18.2949C79.9622 18.5985 78.8093 18.5069 77.8364 18.0987C76.9469 17.7245 75.8984 17.1123 75.5489 16.152C75.1811 15.1394 75.8671 14.6762 76.5244 14.0797C76.5244 14.0797 76.527 14.0797 76.5296 14.0771V14.0744C76.5322 14.0718 76.5453 14.0587 76.5505 14.0535C76.5583 14.0457 76.5609 14.0457 76.5609 14.0457C76.8478 13.7709 76.4853 13.7448 76.2375 13.8285C75.9949 13.9096 75.7654 14.0143 75.5463 14.1451C75.0872 14.4277 74.7325 14.8202 74.3151 15.1551C73.3996 15.8851 72.2076 16.3221 71.1382 16.7616C69.9748 17.2352 68.8324 17.7585 67.7004 18.3028C66.631 18.8156 65.5511 19.3128 64.5338 19.925C64.007 20.2417 63.4853 20.553 62.9897 20.9141C62.6532 21.1548 62.1655 21.6912 61.7586 21.3223C60.9578 20.5923 60.2431 19.6268 59.6536 18.7214C59.338 18.24 58.9859 17.7219 58.772 17.1829C58.5764 16.6805 59.0276 16.3901 59.3693 16.1101C60.1518 15.4664 61.0126 14.9274 61.9412 14.5219C62.4159 14.3125 62.8958 14.1242 63.4044 14.0143C63.5662 13.9776 64.1139 13.784 64.2287 13.9698C64.3121 14.1085 64.1452 14.3753 64.1061 14.5062C64.0278 14.7574 64.0096 15.0269 64.0513 15.2833C64.1217 15.7072 64.3382 16.1389 64.6877 16.3953C65.4676 16.971 66.6909 16.8584 67.2126 15.995C67.7343 15.1341 67.5804 14.0797 66.7718 13.4569C65.9241 12.8002 64.6486 13.0017 63.6705 13.2057C63.3888 13.2659 63.0758 13.2659 62.8071 13.3837C62.5646 13.4883 62.335 13.6113 62.0846 13.7055C61.5421 13.9174 61.0491 14.221 60.5457 14.5062C60.0475 14.7914 59.5989 15.1001 59.1476 15.4534C58.8946 15.6496 58.4303 16.2122 58.1878 15.7359C58.0078 15.3775 57.82 14.8123 58.1199 14.4826ZM57.58 17.9522C57.5957 17.9365 57.6113 17.9208 57.6244 17.9051C57.6296 17.8998 57.6348 17.8946 57.64 17.8894C57.6426 17.8868 57.6452 17.8868 57.6452 17.8868C57.6452 17.8841 57.6478 17.8841 57.6478 17.8841C57.9895 17.5283 58.1747 17.7559 58.3625 18.1301C58.6025 18.6037 58.9259 19.025 59.2363 19.4541C59.5571 19.8963 59.9145 20.3097 60.277 20.7179C60.59 21.0711 61.0178 21.3956 61.2708 21.7959C61.4951 22.1517 60.9109 22.5808 60.6839 22.7823C60.2666 23.1617 59.9406 23.6065 59.5858 24.0383C58.9024 24.8756 58.2712 25.7521 57.7626 26.7072C55.9785 30.0694 54.8126 33.8163 55.3421 37.5842C54.8073 37.6156 54.137 37.5972 53.4223 37.5632C52.7781 35.4648 52.6294 33.1988 52.7311 31.0192C52.7885 29.8209 52.9189 28.5885 53.1928 27.4189C53.4536 26.3016 53.7797 25.1608 54.21 24.1011C54.6743 22.9524 55.0551 21.7906 55.6994 20.7205C56.2811 19.7602 56.8158 18.7764 57.58 17.9522ZM56.0228 40.6717C55.8794 40.9491 55.4307 41.2186 55.1647 40.9569C54.7865 40.5853 54.5126 40.0071 54.2648 39.5466C54.1866 39.4027 54.1083 39.2588 54.0405 39.1122C54.6456 39.0782 55.2038 38.9762 55.5612 38.7459C55.5638 38.759 55.5664 38.7721 55.569 38.7852C55.6029 38.9238 55.6368 39.0599 55.6733 39.1986C55.7542 39.4864 55.8246 39.7795 55.9341 40.0594C56.0072 40.2373 56.1219 40.4859 56.0228 40.6717ZM52.0347 29.6979C52.0347 29.7057 52.0321 29.7136 52.0321 29.7214C52.0321 29.7293 52.0295 29.7371 52.0295 29.7476C52.0295 29.7502 52.0295 29.7502 52.0295 29.7502C52.0295 29.7554 52.0295 29.7633 52.0269 29.7685V29.779C52.0269 29.7816 52.0269 29.7868 52.0242 29.7895C52.0269 29.7921 52.0242 29.7947 52.0242 29.7973V29.8052C52.0242 29.8078 52.0242 29.813 52.0216 29.8156V29.8208C52.0008 30.1532 51.9773 30.4959 51.8417 30.8021C51.6304 30.509 51.706 29.9648 51.6982 29.6246C51.6852 29.1641 51.6173 28.7245 51.6304 28.2562C51.6565 27.3534 51.8025 26.4743 51.9095 25.5768C52.1886 23.2873 53.1537 21.0632 54.2752 19.0773C54.8699 18.028 55.5794 17.0338 56.3776 16.1284C56.5106 15.9793 57.0244 15.176 57.2357 15.5737C57.3192 15.7359 57.3374 15.9243 57.3974 16.0944C57.4705 16.3011 57.5878 16.5183 57.4861 16.7381C57.3609 17.0128 57.1001 17.2535 56.9175 17.4917C56.7375 17.7245 56.5628 17.96 56.388 18.1981C56.0463 18.6613 55.7098 19.1218 55.4125 19.6163C54.7917 20.6551 54.2935 21.7383 53.8031 22.8399C53.3232 23.9153 52.9815 25.043 52.7207 26.1891C52.4677 27.3456 52.126 28.5152 52.0347 29.6979ZM51.7243 43.9659C52.2799 42.362 52.3633 40.4231 51.3278 38.9919C51.6513 39.0154 52.3086 39.0913 53.0311 39.1175C53.2997 39.6774 53.5814 40.2295 53.897 40.7685C54.1161 41.1401 54.6143 41.6451 54.2335 42.0585C53.8736 42.451 53.4849 42.7963 53.1589 43.2228C52.5146 44.0654 51.9043 45.0335 51.8078 46.1141C51.7738 46.504 51.7765 46.8965 51.8338 47.2759C51.8704 47.5297 51.9303 47.7783 52.019 48.019C50.4723 46.9096 50.4905 47.5192 51.7243 43.9659ZM63.4357 49.0891C62.9897 49.3613 62.4759 49.5052 61.9881 49.6779C60.8404 50.0808 59.6119 50.209 58.4042 50.243C57.773 50.2614 57.0531 50.2273 56.3384 50.1044C55.0343 49.8793 53.7458 49.3613 53.0389 48.3225C52.958 48.2021 52.885 48.0818 52.8224 47.9562C51.8704 46.0618 53.2267 43.8534 54.7813 42.6864C55.2534 42.3332 55.6524 43.0763 55.9289 43.3772C56.3124 43.7932 56.7167 44.1831 57.1392 44.5625C57.966 45.3082 58.7903 46.0958 59.711 46.7264L59.7319 46.7395C59.7371 46.7421 59.7371 46.7421 59.7397 46.7447C59.7423 46.7473 59.7449 46.7473 59.7475 46.7499C59.7606 46.7578 59.8023 46.7866 59.8128 46.7944C59.8206 46.7997 59.8258 46.8049 59.8336 46.8101L59.8467 46.818C60.0788 46.9854 60.2979 47.2 60.6031 47.1974C60.6448 46.9017 60.1805 46.6087 59.9875 46.4621C59.7006 46.245 59.4006 46.0461 59.132 45.8054C58.5086 45.2454 57.9478 44.6593 57.3948 44.0287C56.9123 43.4793 56.328 42.8434 56.0098 42.1814C55.882 41.9172 56.0646 41.6869 56.3176 41.598C56.5575 41.5116 56.7219 41.7916 56.8184 41.959C57.5565 43.2333 58.5242 44.4317 59.5441 45.4862C60.6109 46.5877 61.7742 47.5428 63.0836 48.3434C63.3731 48.5161 63.9391 48.783 63.4357 49.0891ZM67.8177 46.2554C67.3691 46.1795 66.8814 45.8315 66.4953 45.5987C65.5928 45.0597 64.7582 44.4029 64.0487 43.6206C63.3236 42.8225 62.6506 41.9747 62.0142 41.1034C61.7429 40.7319 61.3751 40.3315 61.1926 39.9077C61.0335 39.5413 61.4717 39.4838 61.7325 39.4157L61.7377 39.4131C61.7403 39.4105 61.7403 39.4105 61.7403 39.4131L61.7429 39.4105L61.7586 39.4079C61.7664 39.4053 61.7742 39.4027 61.7847 39.4001C61.8055 39.3922 61.8212 39.3896 61.8316 39.387C61.8342 39.3844 61.8394 39.3844 61.8447 39.3817C61.8473 39.3817 61.8499 39.3791 61.8525 39.3791C61.8577 39.3765 61.8603 39.3765 61.8603 39.3765C62.2489 39.2509 62.7341 39.0573 63.0706 39.3765C63.4018 39.6931 63.707 40.0333 64.0435 40.3446C64.8155 41.0616 65.6215 41.7314 66.4849 42.3358C67.3535 42.9402 68.2638 43.4845 69.2028 43.9659C69.4297 44.0811 70.1027 44.3061 69.8914 44.6619C69.6879 45.0099 69.2836 45.3318 68.9915 45.6013C68.6968 45.876 68.269 46.3313 67.8177 46.2554ZM79.1406 47.7573C78.5354 48.4245 77.3356 48.3094 76.5296 48.2911C75.4054 48.2649 74.2682 48.2126 73.1596 48.0164C72.0693 47.8201 70.9712 47.5166 69.9253 47.1424C69.8053 47.1006 69.4767 47.0195 69.461 46.8546C69.448 46.6715 69.7818 46.4857 69.8992 46.3915C70.2774 46.0749 70.6556 45.7609 71.0286 45.4338C71.0286 45.4338 71.0312 45.4338 71.0312 45.4312L71.0495 45.4155C71.0599 45.4077 71.0677 45.3998 71.0782 45.3893C71.1017 45.3684 71.1147 45.3579 71.1199 45.3527C71.532 44.9995 71.7981 44.9367 72.3536 45.0492C72.891 45.1538 73.4439 45.1879 73.9891 45.2166C75.0324 45.2716 76.0862 45.2716 77.1217 45.0989C77.2339 45.078 78.0816 44.8058 77.9016 45.1643C77.7294 45.5071 77.4451 46.3365 77.9668 46.0696C78.6058 45.7478 79.9648 46.8546 79.1406 47.7573ZM83.6452 45.0963C83.3165 45.2166 82.9174 45.248 82.5705 45.248C81.6654 45.248 80.8047 44.7875 79.9126 44.6332C79.9048 44.6305 79.8996 44.6305 79.8918 44.6305C79.8839 44.6279 79.8761 44.6279 79.8683 44.6279C79.8578 44.6253 79.8474 44.6253 79.8422 44.6253C79.8396 44.6227 79.8396 44.6227 79.837 44.6227H79.8344C79.8344 44.6227 79.8344 44.6227 79.8318 44.6227C79.8265 44.6201 79.8239 44.6201 79.8187 44.6201C79.8161 44.6175 79.8135 44.6175 79.8135 44.6175C79.6387 44.5939 79.4483 44.5808 79.3023 44.4709C79.4249 44.2354 79.6831 44.1282 79.8996 43.9973C80.1343 43.856 80.3665 43.7043 80.5908 43.5447C80.9455 43.2909 81.235 42.9481 81.5872 42.7021C81.9497 42.451 82.3045 42.9402 82.5314 43.1705C82.8914 43.5394 83.22 43.9398 83.58 44.3061C83.8251 44.5547 84.1094 44.9236 83.6452 45.0963Z" fill="white"/>
</svg>
