<svg width="64" height="36" viewBox="0 0 64 36" fill="none" xmlns="http://www.w3.org/2000/svg">
<path id="Vector" d="M63.7972 25.0395C63.6191 24.2471 63.2556 23.5287 62.8345 22.8379C62.4116 22.1453 61.8756 21.6023 61.1986 21.1534C60.4956 20.6862 59.7908 20.4257 58.9598 20.2964C57.3572 20.0471 55.6248 20.4405 54.3413 21.4434C53.8238 21.8461 53.31 22.498 53.1653 23.15C53.1394 23.2645 53.0744 23.6247 53.2989 23.5656C53.5641 23.4954 53.8201 23.1186 54.0278 22.945C54.6084 22.4685 55.2502 22.1619 55.9902 22.0234C56.7674 21.8812 57.5909 21.811 58.3755 21.9218C59.0971 22.0234 59.7611 22.4297 60.273 22.9358C60.8128 23.4677 61.3265 24.2305 61.525 24.9693C61.9256 26.4598 61.8403 28.135 61.3785 29.6089C61.2561 29.9986 61.0984 30.4253 60.8517 30.754C60.7664 30.8667 60.6736 31.0274 60.5364 31.081C60.3769 31.1456 60.2674 30.9886 60.1784 30.8852C59.8872 30.5509 59.5997 30.2129 59.2807 29.9007C59.0655 29.6902 58.6092 29.4261 58.7205 29.0733C58.8504 28.6614 59.0006 28.2809 59.0488 27.8469C59.0915 27.4553 59.1082 27.0693 59.0729 26.6759C59.0025 25.8873 58.7112 25.2094 58.1121 24.6719C57.5557 24.1733 56.836 23.9442 56.1182 24.2213C55.3893 24.5039 54.9794 25.1023 55.2112 25.8891C55.4004 26.5337 56.0922 26.8052 56.7155 26.6778C57.0957 26.6002 57.3572 26.3804 57.5093 26.0276C57.5835 25.8577 57.6355 25.6804 57.6447 25.4938C57.6521 25.3867 57.5668 25.1097 57.6262 25.0026C57.6262 25.0266 57.7115 25.0007 57.6744 24.9878C57.9267 25.0376 58.1307 25.4551 58.2457 25.6471C58.4163 25.9371 58.5295 26.2825 58.5592 26.6168C58.6185 27.2854 58.6055 27.9799 58.2791 28.582C58.1084 28.8978 57.8376 28.7113 57.6113 28.5524C57.3424 28.3659 57.0772 28.1812 56.7859 28.0297C56.1071 27.6788 55.4375 27.3538 54.7123 27.1063C54.3302 26.9751 53.9462 26.8514 53.5567 26.7479C53.1561 26.6408 53.2247 26.349 53.182 25.9999C53.0819 25.1872 52.7814 24.4078 52.3678 23.706C51.9356 22.9709 51.483 22.2653 50.9692 21.5838C50.4425 20.8856 49.8786 20.2152 49.3704 19.5041C49.2665 19.3582 48.7305 18.6951 48.8993 18.5141C49.0217 18.3811 49.4371 18.5935 49.5725 18.6286C50.32 18.8189 51.0898 18.8964 51.8577 18.9334C53.5734 19.0165 55.354 18.7598 56.9826 18.2131C59.8631 17.2471 62.8772 15.1729 63.1146 11.8908C63.2296 10.3246 62.9106 8.71405 61.9887 7.41931C61.0687 6.12643 59.672 5.29344 58.1696 4.84278C57.3684 4.60082 56.5393 4.45491 55.7083 4.35148C54.8551 4.24436 53.9481 4.17232 53.0893 4.20926C52.2453 4.24805 51.3791 4.27575 50.5575 4.47523C50.1494 4.57312 49.7469 4.61929 49.3444 4.74489C48.9605 4.86309 48.5561 4.94806 48.1814 5.09581C47.3764 5.41534 46.5956 5.7441 45.8351 6.16152C45.1061 6.56231 44.3939 6.99081 43.7076 7.45995C43.0083 7.93831 42.3313 8.45547 41.6896 9.00771C41.5783 9.10191 41.1424 9.61537 41.0033 9.35125C40.8994 9.15547 40.9439 8.87288 40.9365 8.65864C40.8734 7.00744 41.4169 5.38948 42.4742 4.10768C42.975 3.50002 43.55 2.88129 44.2214 2.45833C44.5924 2.22746 44.9503 1.97811 45.3399 1.77864C45.6886 1.59948 46.0595 1.46465 46.4212 1.31135C47.9143 0.687076 49.6078 0.504225 51.2122 0.579951C51.6073 0.598421 52.0376 0.711087 52.403 0.858845C52.7035 0.980745 52.9669 1.3169 53.3082 1.14513C53.9036 0.845916 54.5398 0.977051 55.1611 0.794201C55.265 0.764649 55.4375 0.668606 55.3336 0.535624C55.2502 0.428499 55.0591 0.406335 54.9367 0.37863C54.5713 0.293669 54.204 0.230872 53.8312 0.175463C52.9409 0.0461743 52.0524 0.0147757 51.1529 0.0018468C49.4687 -0.0240109 47.8012 0.21979 46.232 0.851457C44.6888 1.47204 43.2458 2.29764 42.1588 3.58498C41.6358 4.20742 41.2426 4.90373 40.9439 5.65545C40.6509 6.39239 40.547 7.20137 40.4617 7.98079C40.4172 8.38898 40.4042 8.78792 40.432 9.19795C40.4505 9.48239 40.5693 9.86656 40.4023 10.1251C40.176 10.4761 39.8329 10.7716 39.551 11.0782C39.3061 11.3441 39.1225 11.6618 38.9018 11.95C38.3787 12.6315 37.9039 13.3647 37.5236 14.1349C37.1397 14.9125 36.8615 15.7067 36.5851 16.5268C36.0268 18.178 35.9192 19.9123 35.9897 21.641C36.0249 22.4851 36.1752 23.3218 36.3848 24.1382C36.587 24.925 36.8355 25.7247 37.1731 26.4654C35.8395 26.3878 34.4836 26.3102 34.057 26.602C34.0848 26.5836 36.6463 29.9561 35.4537 32.2113C34.133 31.0274 30.275 27.6567 32.0501 26.3527C33.4226 25.3461 35.1421 23.4326 34.3927 21.5672C33.6248 19.65 30.9446 20.1302 29.7742 21.3234C27.4872 23.6376 30.4679 26.1052 28.461 27.8155C28.218 28.0242 28.0029 28.2421 27.8155 28.4675C27.9064 28.1757 27.9676 27.8746 27.9917 27.5588C28.0585 26.6999 28.0066 25.8725 27.8174 25.0321C27.6393 24.2397 27.2758 23.5213 26.8566 22.8305C26.4337 22.1379 25.8958 21.5949 25.2188 21.1461C24.5158 20.6788 23.811 20.4183 22.98 20.2891C21.3774 20.0397 19.645 20.4331 18.3634 21.436C17.8459 21.8387 17.3302 22.4907 17.1855 23.1426C17.1596 23.2572 17.0947 23.6173 17.3209 23.5582C17.588 23.488 17.8421 23.1112 18.0499 22.9376C18.6304 22.4611 19.2722 22.1545 20.0123 22.016C20.7895 21.8738 21.6149 21.8036 22.3994 21.9144C23.1191 22.016 23.7831 22.4223 24.2969 22.9284C24.8367 23.4603 25.3505 24.2231 25.5489 24.9619C25.9496 26.4524 25.8624 28.1276 25.4024 29.6015C25.28 29.9912 25.1223 30.4179 24.8738 30.7467C24.7884 30.8593 24.6957 31.02 24.5585 31.0736C24.3989 31.1382 24.2914 30.9812 24.2005 30.8778C23.9074 30.5435 23.6218 30.2055 23.3046 29.8933C23.0894 29.6828 22.6331 29.4187 22.7426 29.0659C22.8724 28.654 23.0227 28.2735 23.0709 27.8395C23.1154 27.4479 23.1302 27.0619 23.095 26.6685C23.0245 25.8799 22.7333 25.202 22.1323 24.6646C21.5778 24.1659 20.8562 23.9368 20.1403 24.2139C19.4095 24.4965 19.0014 25.0949 19.2314 25.8817C19.4225 26.5263 20.1124 26.7978 20.7375 26.6704C21.1178 26.5928 21.3793 26.373 21.5314 26.0202C21.6056 25.8503 21.6557 25.673 21.6668 25.4865C21.6724 25.3793 21.5889 25.1023 21.6464 24.9952C21.6464 25.0192 21.7336 24.9933 21.6946 24.9804C21.9469 25.0303 22.1528 25.4477 22.2659 25.6398C22.4384 25.9297 22.5497 26.2733 22.5812 26.6094C22.6387 27.278 22.6257 27.9725 22.2993 28.5746C22.1286 28.8904 21.8578 28.7039 21.6334 28.5451C21.3645 28.3585 21.0992 28.1738 20.8062 28.0224C20.1273 27.6714 19.4577 27.3464 18.7325 27.0989C18.3485 26.9677 17.9664 26.844 17.5751 26.7406C17.1744 26.6353 17.2449 26.3416 17.2022 25.9925C17.1002 25.1799 16.8016 24.4004 16.388 23.6967C15.9558 22.9616 15.5032 22.2561 14.9876 21.5746C14.4627 20.8764 13.8988 20.2059 13.3887 19.4949C13.2867 19.3489 12.7507 18.6859 12.9195 18.5049C13.0419 18.3719 13.4574 18.5843 13.5928 18.6194C14.3402 18.8096 15.1081 18.8872 15.876 18.9241C17.5917 19.0073 19.3724 18.7505 21.0009 18.2038C23.8833 17.2379 26.8955 15.1637 27.1348 11.8816C27.2479 10.3154 26.9289 8.70481 26.0071 7.41008C25.0889 6.11719 23.6904 5.28421 22.188 4.83354C21.3849 4.59159 20.5576 4.44568 19.7266 4.34225C18.8734 4.23512 17.9664 4.16309 17.1076 4.20003C16.2637 4.23882 15.3975 4.26652 14.5758 4.46599C14.1677 4.56388 13.7653 4.61006 13.3628 4.73565C12.977 4.85386 12.5745 4.93882 12.1998 5.08658C11.3948 5.40611 10.6139 5.73487 9.85344 6.15229C9.12449 6.55308 8.41224 6.98158 7.72596 7.45071C7.02669 7.92908 6.34968 8.44623 5.70792 8.99848C5.59663 9.09268 5.1626 9.60614 5.02163 9.34202C4.91776 9.14624 4.96413 8.86365 4.95486 8.6494C4.89179 6.9982 5.43711 5.38025 6.4925 4.09845C6.99331 3.49079 7.5683 2.87205 8.2416 2.44909C8.61071 2.21822 8.97054 1.96888 9.36006 1.76941C9.71062 1.59025 10.0797 1.45542 10.4433 1.30212C11.9383 0.687076 13.6317 0.504225 15.238 0.579951C15.6312 0.598421 16.0615 0.711087 16.4269 0.858845C16.7274 0.980745 16.9908 1.3169 17.3321 1.14513C17.9293 0.845916 18.5637 0.977051 19.185 0.794201C19.2889 0.764649 19.4614 0.668606 19.3575 0.535624C19.2741 0.428499 19.083 0.406335 18.9625 0.37863C18.5952 0.293669 18.228 0.230872 17.857 0.175463C16.9667 0.0461743 16.0782 0.0147757 15.1805 0.0018468C13.4944 -0.0240109 11.827 0.21979 10.2596 0.851457C8.71458 1.47204 7.27338 2.29764 6.18646 3.58498C5.66155 4.20742 5.27018 4.90373 4.9697 5.65545C4.67664 6.39239 4.57277 7.20137 4.4893 7.98079C4.44664 8.38898 4.4318 8.78792 4.45962 9.19795C4.47817 9.48239 4.59873 9.86656 4.42994 10.1251C4.20551 10.4761 3.85866 10.7716 3.57858 11.0782C3.33375 11.3441 3.15197 11.6618 2.93125 11.95C2.40634 12.6315 1.93336 13.3647 1.55126 14.1349C1.16732 14.9125 0.890948 15.7067 0.61458 16.5268C0.0562794 18.178 -0.0513002 19.9123 0.019183 21.641C0.0544246 22.4851 0.204665 23.3218 0.416114 24.1382C0.621999 24.9398 0.87611 25.758 1.22482 26.5097C1.58094 27.2799 1.92223 28.039 2.3544 28.7722C2.51021 29.0345 2.86262 29.391 2.59182 29.6828C2.33585 29.9598 2.05948 30.2036 1.82763 30.5047C1.36949 31.0994 0.935464 31.7828 0.866836 32.5456C0.800062 33.2899 0.937319 34.0527 1.45296 34.6198C2.59553 35.8739 4.40212 36.0715 6.01211 35.981C6.81524 35.9367 7.63507 35.8425 8.40668 35.6097C8.80361 35.4897 9.21167 35.3678 9.59376 35.2108C9.92392 35.0741 10.293 34.8119 10.6566 34.9541C12.1738 35.5543 13.9136 35.7704 15.5348 35.7797C17.1763 35.7889 18.905 35.534 20.463 35.0113C21.2791 34.7398 22.0693 34.3963 22.7982 33.9345C23.1673 33.7 23.6626 33.338 23.9964 33.0572L25.2299 33.0295C25.113 32.6583 25.3653 31.9121 25.5934 31.6794C26.046 31.2213 26.5023 30.7337 26.8937 30.2092C25.957 33.5393 29.1083 37.1815 33.1018 35.2717C33.814 34.9264 34.7006 34.3464 35.2552 33.7868C35.7579 34.1987 37.5181 35.0372 38.5865 35.4712C38.5865 35.4712 38.5865 35.4712 38.5883 35.4731C38.7311 35.5396 38.8758 35.6005 39.026 35.6522C39.9553 35.9828 41.007 36.0364 41.9863 35.981C42.7895 35.9367 43.6093 35.8425 44.3809 35.6097C44.7778 35.4897 45.184 35.3678 45.568 35.2108C45.8982 35.0741 46.2673 34.8119 46.6327 34.9541C48.1481 35.5543 49.8897 35.7704 51.509 35.7797C53.1505 35.7889 54.881 35.534 56.4391 35.0113C57.2552 34.7398 58.0454 34.3963 58.7725 33.9345C59.1416 33.7 59.6368 33.338 59.9725 33.0572L61.2041 33.0295C61.0891 32.6583 61.3377 31.9121 61.5695 31.6794C62.6954 30.5379 63.8454 29.234 63.9734 27.5606C64.0383 26.7073 63.9864 25.8799 63.7972 25.0395ZM15.8649 30.597C16.0485 30.3773 16.1988 30.1224 16.3379 29.873C16.6365 29.3411 16.8851 28.7556 17.026 28.1609C17.026 28.1572 17.0279 28.1553 17.0279 28.1498C17.0279 28.148 17.0279 28.148 17.0279 28.148C17.0279 28.148 17.0297 28.1406 17.0316 28.1295C17.0334 28.1202 17.0353 28.111 17.0372 28.1036C17.0372 28.1018 17.0372 28.1018 17.0372 28.1018C17.039 28.0962 17.0409 28.0888 17.0427 28.0833V28.0815C17.1095 27.7952 17.1911 27.6142 17.5342 27.7435C17.831 27.8543 18.1445 27.9208 18.4524 27.9965C19.0793 28.1535 19.7359 28.4121 20.3091 28.7057C20.6299 28.8683 20.9341 29.0604 21.2346 29.2617C21.4331 29.3947 21.6612 29.5646 21.4553 29.8028C21.0436 30.2701 20.5205 30.5675 19.9659 30.8408C19.3594 31.1382 18.675 31.2324 18.0054 31.2527C17.6492 31.262 17.2913 31.2269 16.9351 31.2139C16.5994 31.201 16.2618 31.1899 15.9335 31.1105C15.5885 31.0219 15.6813 30.8168 15.8649 30.597ZM14.867 28.5838C14.8448 29.173 14.7075 29.7659 14.4608 30.3034C14.3198 30.6118 14.1659 30.6543 13.8543 30.5065C13.5742 30.3754 13.2867 30.2646 13.0103 30.1242C11.7899 29.5055 10.651 28.7815 9.68836 27.8026C9.27659 27.3833 9.95174 27.3759 10.2467 27.3224C10.9255 27.1949 11.6062 27.2078 12.2925 27.182C12.2999 27.182 12.3092 27.1801 12.3166 27.1801C12.3259 27.1801 12.337 27.1801 12.3482 27.1783C12.3612 27.1783 12.3741 27.1764 12.3871 27.1764C12.3945 27.1746 12.402 27.1746 12.4094 27.1746H12.4149C12.4242 27.1746 12.4335 27.1727 12.4391 27.1727C12.452 27.1709 12.4576 27.1709 12.4576 27.1709C12.8082 27.1561 13.155 27.1284 13.5074 27.134C13.8524 27.1377 14.2438 27.1155 14.5814 27.1949C14.9969 27.3002 14.88 28.268 14.867 28.5838ZM13.322 23.8371C13.769 24.526 14.2586 25.2316 14.5053 26.0221C14.6481 26.4857 14.0565 26.3213 13.7708 26.3194C13.3461 26.3157 12.9213 26.3324 12.4966 26.3582C11.6767 26.4099 10.8513 26.4764 10.0389 26.6057C9.82376 26.6408 9.61046 26.6796 9.39901 26.7239C9.2432 26.7572 9.08554 26.8495 8.92417 26.7904C8.69603 26.7073 8.52539 26.2511 8.42337 26.0535C8.05426 25.3369 7.80015 24.5667 7.60169 23.7909C7.4904 23.3587 7.45145 22.897 7.38653 22.4537C7.32532 22.0308 7.33274 21.6004 7.36798 21.1738C7.48854 19.6445 7.68886 17.9988 8.61998 16.7244C8.62369 16.7188 8.6274 16.7152 8.63111 16.7096C8.64595 16.6874 8.65337 16.6801 8.65337 16.6801C8.65337 16.6801 8.65337 16.6801 8.65337 16.6782C8.92417 16.3273 9.23578 16.6524 9.52514 16.8426C9.84973 17.0568 10.1743 17.2896 10.523 17.4632C10.6714 17.5371 10.8328 17.6202 10.8476 17.8049C10.8625 17.9859 10.8217 18.1724 10.8217 18.3534C10.8254 18.7468 10.8792 19.1495 10.9793 19.53C11.1815 20.302 11.6044 21.002 11.9883 21.6946C12.3983 22.4352 12.8638 23.1316 13.322 23.8371ZM6.62976 21.641C6.71323 23.331 7.2975 24.8825 7.96152 26.421C8.09878 26.7387 8.27684 27.0047 7.84652 27.1284C7.61838 27.1949 7.18064 27.4683 6.97105 27.2762C6.74291 27.0693 6.61492 26.6851 6.49621 26.4118C6.34597 26.0646 6.20686 25.7118 6.12711 25.3424C5.78211 23.7411 5.65227 22.0474 5.95832 20.4313C6.23469 18.9703 6.91911 17.4244 7.92999 16.3144C7.9337 16.3107 7.94112 16.3051 7.94854 16.2959C7.95967 16.283 7.9708 16.2719 7.9708 16.2719C8.05983 16.1814 8.31579 15.945 8.36773 16.15C8.40668 16.3088 8.23789 16.5138 8.15813 16.6339C7.82056 17.1418 7.55532 17.6405 7.32346 18.2057C6.88387 19.2732 6.57226 20.4775 6.62976 21.641ZM5.3555 10.223C5.6059 9.95152 5.9138 9.71511 6.18646 9.46576C6.78557 8.91906 7.44588 8.41299 8.10991 7.9457C8.46232 7.69821 8.82958 7.47472 9.18756 7.23462C9.52699 7.00744 9.89053 6.84675 10.2485 6.65282C11.7509 5.83461 13.3906 5.24911 15.0822 4.97761C15.9131 4.84462 16.7255 4.76336 17.5713 4.77444C18.3392 4.78367 19.0756 4.88526 19.8305 5.00346C21.4182 5.25096 23.0486 5.9602 24.2097 7.08316C24.7829 7.63541 25.2577 8.30402 25.5656 9.03542C25.8735 9.76867 25.97 10.6146 25.957 11.4051C25.9329 12.903 25.3746 14.3159 24.3674 15.4297C23.2694 16.6394 21.6464 17.4262 20.0754 17.816C18.406 18.2297 16.6847 18.3442 14.9746 18.1724C14.5536 18.1299 14.1529 18.0524 13.7374 17.9729C13.4518 17.9194 13.0827 17.8233 12.8286 17.6811C12.5244 17.5112 12.7006 17.0144 12.7599 16.7521C12.8434 16.3938 12.9899 16.089 13.1847 15.7806C13.3924 15.45 13.6818 15.1563 13.8636 14.8128C14.0231 14.5099 13.8042 14.375 13.5074 14.4766C12.81 14.7186 12.1423 15.2413 11.6879 15.812C11.4412 16.1223 11.3187 16.4806 11.1296 16.8204C10.9552 17.1381 10.6195 16.8888 10.3839 16.7724C10.0556 16.6099 9.69763 16.4381 9.3953 16.2257C9.12264 16.0318 9.35635 15.8064 9.53997 15.6494C10.7067 14.6373 12.1312 13.9742 13.6632 13.7323C13.8413 13.7046 14.0602 13.6436 14.2252 13.7526C14.3588 13.8413 14.4441 13.9853 14.5573 14.0961C14.8058 14.3436 15.0952 14.5653 15.3975 14.7444C16.0708 15.1397 16.9018 15.2801 17.6715 15.293C18.5433 15.3078 19.3668 15.099 20.1644 14.7555C20.9045 14.4378 21.6315 14.0223 22.1639 13.4091C22.264 13.2946 22.7018 12.7257 22.3104 12.6943C22.0823 12.6758 21.8226 12.8494 21.6093 12.9141C20.8859 13.1283 20.0661 13.0637 19.3742 12.7756C18.7417 12.5114 17.998 12.0792 17.7476 11.4014C17.4879 10.6866 17.9738 10.3597 18.4413 9.93859C18.4413 9.93859 18.4431 9.93674 18.445 9.93674V9.9349H18.4468C18.4505 9.9312 18.4524 9.92751 18.4561 9.92382C18.6824 9.72065 18.4171 9.70033 18.2372 9.76128C18.0647 9.81854 17.9015 9.89242 17.7476 9.98477C17.4192 10.1842 17.167 10.4613 16.8702 10.6977C16.2192 11.213 15.3715 11.5215 14.6111 11.8317C13.7838 12.166 12.9714 12.5354 12.1664 12.9196C11.4059 13.2816 10.6362 13.6325 9.91465 14.0647C9.54183 14.2882 9.17087 14.508 8.81659 14.7629C8.57918 14.9328 8.23047 15.3115 7.94297 15.051C7.37169 14.5357 6.86532 13.8542 6.44428 13.2151C6.21985 12.8753 5.96945 12.5096 5.8192 12.1291C5.67824 11.7745 5.99912 11.5695 6.2421 11.3718C6.79855 10.9175 7.4125 10.537 8.07096 10.2507C8.41039 10.103 8.74982 9.96999 9.11337 9.89242C9.22836 9.86656 9.61788 9.72988 9.69949 9.86102C9.75884 9.95891 9.64013 10.1473 9.61231 10.2396C9.55852 10.417 9.54368 10.6072 9.57336 10.7882C9.62344 11.0874 9.77925 11.3922 10.0259 11.5732C10.5805 11.9795 11.4504 11.9001 11.8214 11.2906C12.1924 10.6829 12.0829 9.93859 11.5079 9.49901C10.9033 9.03542 9.99626 9.17764 9.30256 9.3217C9.10038 9.36418 8.8778 9.36418 8.68861 9.4473C8.51611 9.52117 8.35103 9.60798 8.17668 9.67447C7.79088 9.82408 7.44032 10.0383 7.08234 10.2396C6.72807 10.441 6.40904 10.6589 6.08815 10.9083C5.90824 11.0468 5.57808 11.4439 5.40558 11.1077C5.27574 10.8547 5.14034 10.4557 5.3555 10.223ZM1.02821 20.9632C1.02821 20.9687 1.02635 20.9743 1.02635 20.978C1.02635 20.9835 1.0245 20.9891 1.0245 20.9946C1.0245 20.9965 1.0245 20.9965 1.0245 20.9965C1.0245 21.0001 1.0245 21.0038 1.02264 21.0075V21.0168C1.02264 21.0205 1.02079 21.0242 1.02079 21.026V21.0297C1.02079 21.0315 1.02079 21.0315 1.02079 21.0315C1.02079 21.0352 1.01893 21.0371 1.01893 21.0408V21.0426C1.00224 21.2772 0.989254 21.5228 0.890948 21.7389C0.738853 21.5321 0.796353 21.1479 0.788933 20.9078C0.779659 20.5827 0.729579 20.2724 0.740708 19.9418C0.759256 19.3046 0.864981 18.684 0.941029 18.0505C1.13949 16.4344 1.82578 14.8645 2.62335 13.4626C3.04439 12.722 3.55261 12.0201 4.12019 11.3811C4.21293 11.2758 4.58019 10.7088 4.72857 10.9895C4.78792 11.104 4.80091 11.237 4.84357 11.3571C4.89736 11.503 4.97897 11.6563 4.90849 11.8114C4.8176 12.0054 4.63212 12.1753 4.50414 12.3434C4.37801 12.5077 4.25188 12.674 4.12761 12.842C3.88463 13.169 3.64536 13.494 3.43391 13.8431C2.99246 14.5764 2.63819 15.341 2.28948 16.1186C1.95005 16.8777 1.70521 17.6737 1.51973 18.4827C1.33425 19.3028 1.09312 20.1284 1.02821 20.9632ZM2.61222 27.9152C2.41932 27.5625 2.24311 27.1986 2.11327 26.8181C1.57352 25.2519 1.44554 23.5379 1.52344 21.8941C1.56425 21.0482 1.65884 20.1782 1.85175 19.3526C2.03723 18.564 2.26908 17.7587 2.57512 17.0107C2.90714 16.1998 3.17609 15.3798 3.63423 14.6244C4.04785 13.9484 4.42623 13.2539 4.9697 12.6703C4.98268 12.6555 4.99566 12.6444 5.00865 12.6315C5.01792 12.6223 5.01792 12.6204 5.01792 12.6204C5.25905 12.3711 5.39074 12.5299 5.52614 12.794C5.69679 13.1283 5.92679 13.4257 6.14751 13.7286C6.37565 14.0407 6.62976 14.3326 6.88758 14.6207C7.11016 14.87 7.41621 15.099 7.59427 15.3816C7.75378 15.6328 7.3383 15.9357 7.17879 16.0779C6.88202 16.3458 6.65016 16.6597 6.39791 16.9645C5.91195 17.5555 5.46493 18.1743 5.10139 18.8484C3.65092 21.5598 2.7773 24.6276 3.61753 27.6696C3.67318 27.8728 3.72511 28.0796 3.80302 28.2772C3.8531 28.4028 3.93471 28.5765 3.86422 28.7094C3.76221 28.9052 3.44318 29.0955 3.25399 28.9108C2.98318 28.6485 2.79028 28.2403 2.61222 27.9152ZM9.13562 34.6512C8.81845 34.8432 8.45305 34.9448 8.10434 35.0667C7.29008 35.3512 6.4146 35.4417 5.55582 35.4657C4.28527 35.5026 2.51948 35.2422 1.74046 34.11C0.785224 32.7211 1.80166 31.0089 2.97948 30.1316C3.31334 29.8823 3.59713 30.4068 3.79374 30.6192C4.0664 30.9129 4.35575 31.1881 4.65438 31.4559C5.24236 31.9823 5.82848 32.5382 6.48509 32.9833C6.49065 32.987 6.49621 32.9907 6.50363 32.9944C6.51662 33.0037 6.56299 33.0332 6.57041 33.0388C6.57226 33.0406 6.57226 33.0406 6.57412 33.0406L6.58339 33.0461C6.74847 33.1643 6.90428 33.3158 7.12129 33.314C7.15097 33.1052 6.82081 32.8984 6.6817 32.795C6.47767 32.6417 6.26436 32.5013 6.07517 32.3314C5.63187 31.9361 5.23123 31.5224 4.83986 31.0773C4.49672 30.6894 4.08309 30.2406 3.85495 29.7733C3.76406 29.5867 3.89576 29.4242 4.07382 29.3614C4.24446 29.3005 4.36132 29.4981 4.42994 29.6163C4.95486 30.5158 5.643 31.3617 6.37009 32.106C7.12685 32.8836 7.95596 33.5578 8.88522 34.1229C9.09111 34.2467 9.4936 34.4351 9.13562 34.6512ZM12.2517 32.6509C11.9327 32.5973 11.5858 32.3517 11.3132 32.1873C10.6696 31.8068 10.076 31.3432 9.57151 30.791C9.05772 30.2277 8.57732 29.6292 8.12475 29.0142C7.93185 28.7519 7.67032 28.4693 7.54048 28.1701C7.42919 27.9115 7.73894 27.8709 7.92628 27.8229L7.92999 27.821C7.93184 27.8192 7.93185 27.8192 7.93185 27.821L7.9337 27.8192L7.94483 27.8173C7.95039 27.8155 7.95596 27.8136 7.96338 27.8118C7.97822 27.8063 7.98934 27.8044 7.99862 27.8026C8.00047 27.8007 8.00418 27.8007 8.00789 27.7989C8.00975 27.7989 8.0116 27.797 8.01531 27.797C8.01902 27.7952 8.02088 27.7952 8.02088 27.7952C8.29724 27.7065 8.64224 27.5698 8.88151 27.7952C9.11707 28.0187 9.33409 28.2588 9.57336 28.4786C10.1224 28.9846 10.6955 29.4575 11.3113 29.8841C11.9271 30.3108 12.5745 30.6949 13.2441 31.0348C13.4073 31.116 13.8858 31.2749 13.7356 31.5261C13.589 31.7717 13.3034 31.9989 13.0938 32.1891C12.8768 32.3831 12.5707 32.7044 12.2517 32.6509ZM20.3016 33.7111C19.8713 34.182 19.0181 34.1008 18.445 34.0878C17.6455 34.0694 16.8368 34.0324 16.0485 33.8939C15.2714 33.7554 14.4923 33.5411 13.7486 33.277C13.6632 33.2475 13.4277 33.1902 13.4203 33.0738C13.411 32.9446 13.6484 32.8134 13.73 32.7469C14.0008 32.5234 14.2716 32.3 14.5331 32.0709L14.535 32.0691C14.5369 32.0672 14.5387 32.0654 14.5406 32.0635C14.5424 32.0617 14.5424 32.0617 14.5424 32.0617C14.5424 32.0617 14.5554 32.0525 14.5665 32.0395C14.5777 32.0303 14.5888 32.0192 14.5999 32.01L14.6018 32.0081C14.8893 31.7643 15.0803 31.7219 15.4735 31.7976C15.8556 31.8715 16.247 31.8955 16.6365 31.9158C17.3784 31.9546 18.1259 31.9546 18.8642 31.8327C18.9439 31.8179 19.5467 31.6258 19.4187 31.8789C19.2982 32.1208 19.0942 32.7063 19.4651 32.5179C19.9233 32.2926 20.8878 33.0738 20.3016 33.7111ZM23.5049 31.8327C23.2712 31.9176 22.9874 31.9398 22.7407 31.9398C22.0915 31.9398 21.4739 31.6092 20.8358 31.5039C20.8303 31.5039 20.8247 31.5021 20.821 31.5021C20.8191 31.5021 20.8191 31.5021 20.8191 31.5021C20.8117 31.5002 20.8062 31.5002 20.8006 31.5002C20.7987 31.5002 20.7987 31.5002 20.7987 31.5002C20.7969 31.4984 20.7969 31.4984 20.7969 31.4984H20.7932C20.7913 31.4984 20.7876 31.4965 20.7839 31.4965C20.6578 31.4781 20.5224 31.4688 20.4148 31.3912C20.5038 31.225 20.6856 31.1493 20.8395 31.0569C21.0065 30.9572 21.1697 30.8501 21.3292 30.7374C21.5815 30.5583 21.7874 30.3163 22.0378 30.1427C22.2956 29.9654 22.5478 30.3108 22.7092 30.4733C22.9652 30.7337 23.1989 31.0163 23.4548 31.2749C23.6348 31.4504 23.8369 31.7108 23.5049 31.8327ZM30.1415 22.5701C30.1433 22.5645 30.1433 22.5608 30.1452 22.5535V22.5516C30.147 22.5461 30.147 22.5405 30.1489 22.5331C30.1507 22.5221 30.1544 22.5091 30.1563 22.498V22.4962L30.16 22.4814C30.1619 22.4796 30.1619 22.4777 30.1619 22.4759C30.8797 19.5152 35.6577 23.5324 30.8945 26.325C30.3418 25.1854 29.8781 23.85 30.1415 22.5701ZM33.8956 33.929C33.8938 33.9308 33.8919 33.9308 33.8901 33.9327C33.8789 33.9401 33.8696 33.9456 33.8622 33.9512C33.8585 33.953 33.8567 33.9549 33.853 33.9567C33.8344 33.9696 33.8288 33.9715 33.8288 33.9715C29.674 36.5351 26.3298 30.5675 29.854 27.6548C30.9891 29.8527 32.6473 31.8327 34.4836 33.4765C34.287 33.6261 34.0922 33.7775 33.8956 33.929ZM51.841 30.597C52.0246 30.3773 52.173 30.1224 52.314 29.873C52.6126 29.3411 52.8611 28.7556 53.0003 28.1609C53.0003 28.159 53.0003 28.1572 53.0021 28.1553C53.004 28.1535 53.004 28.148 53.004 28.1406C53.0077 28.1332 53.0077 28.1239 53.0114 28.1166C53.0114 28.111 53.0132 28.1073 53.0132 28.1018C53.0151 28.0925 53.0169 28.0833 53.0207 28.0759C53.0207 28.0741 53.0225 28.0722 53.0225 28.0722C53.0874 27.7896 53.1728 27.6105 53.5122 27.7398C53.809 27.8506 54.1224 27.9171 54.4285 27.9928C55.0554 28.1498 55.7101 28.4084 56.2851 28.702C56.606 28.8646 56.9102 29.0567 57.2088 29.258C57.4073 29.391 57.6355 29.5609 57.4277 29.7992C57.0159 30.2664 56.4947 30.5638 55.9401 30.8372C55.3336 31.1345 54.6492 31.2287 53.9777 31.249C53.6216 31.2583 53.2655 31.2232 52.9075 31.2102C52.5736 31.1973 52.2342 31.1862 51.9078 31.1068C51.5646 31.0219 51.6574 30.8168 51.841 30.597ZM50.8431 28.5838C50.8208 29.173 50.6817 29.7659 50.4369 30.3034C50.2941 30.6118 50.1401 30.6543 49.8285 30.5065C49.5484 30.3754 49.2628 30.2646 48.9846 30.1242C47.766 29.5055 46.6252 28.7815 45.6644 27.8026C45.2527 27.3833 45.9278 27.3759 46.2209 27.3224C46.9016 27.1949 47.5805 27.2078 48.2686 27.182C48.276 27.182 48.2853 27.1801 48.2927 27.1801C48.302 27.1801 48.3131 27.1801 48.3243 27.1783C48.3372 27.1783 48.3502 27.1764 48.3632 27.1764C48.3706 27.1746 48.3762 27.1746 48.3855 27.1746H48.391C48.4003 27.1746 48.4096 27.1727 48.4151 27.1727C48.4281 27.1709 48.4337 27.1709 48.4337 27.1709C48.7843 27.1561 49.1311 27.1284 49.4835 27.134C49.8285 27.1377 50.2199 27.1155 50.5575 27.1968C50.9711 27.3002 50.8542 28.268 50.8431 28.5838ZM49.298 23.8371C49.7451 24.526 50.2347 25.2316 50.4796 26.0221C50.6242 26.4857 50.0307 26.3213 49.7451 26.3194C49.3203 26.3157 48.8974 26.3324 48.4726 26.3582C47.6528 26.4099 46.8274 26.4764 46.015 26.6057C45.7998 26.6408 45.5865 26.6796 45.3751 26.7239C45.2193 26.7572 45.0635 26.8495 44.8984 26.7904C44.6721 26.7073 44.5015 26.2511 44.3995 26.0535C44.0304 25.3369 43.7762 24.5667 43.5778 23.7909C43.4665 23.3587 43.4257 22.897 43.3626 22.4537C43.3014 22.0308 43.3088 21.6004 43.3422 21.1738C43.4628 19.6555 43.6594 18.0247 44.5738 16.7521C44.5812 16.7429 44.5868 16.7336 44.5961 16.7225C44.5979 16.7207 44.5979 16.7207 44.5979 16.7207L44.622 16.6875C44.8966 16.3199 45.2119 16.6487 45.5031 16.8426C45.8295 17.0568 46.1541 17.2896 46.5028 17.4632C46.6512 17.5371 46.8126 17.6202 46.8274 17.8049C46.8404 17.9859 46.7996 18.1724 46.8015 18.3534C46.8052 18.7468 46.859 19.1495 46.9573 19.53C47.1613 20.302 47.5842 21.002 47.9663 21.6946C48.3743 22.4352 48.838 23.1316 49.298 23.8371ZM42.6059 21.641C42.6893 23.331 43.2736 24.8825 43.9376 26.421C44.0749 26.7387 44.2529 27.0047 43.8226 27.1284C43.5945 27.1949 43.1567 27.4683 42.9471 27.2762C42.7208 27.0693 42.591 26.6851 42.4723 26.4118C42.3239 26.0646 42.1848 25.7118 42.1032 25.3424C41.7601 23.7411 41.6302 22.0474 41.9344 20.4313C42.2108 18.9703 42.8952 17.4262 43.9042 16.3181C43.9061 16.3162 43.9079 16.3144 43.9098 16.3125C43.9116 16.3107 43.9116 16.3107 43.9154 16.307C43.9209 16.3014 43.9283 16.2922 43.9339 16.2867C43.9339 16.2867 43.9339 16.2867 43.9339 16.2848L43.9358 16.283C43.9376 16.2811 43.9395 16.2793 43.9413 16.2774C43.9432 16.2756 43.945 16.2719 43.945 16.2719C43.945 16.2719 43.9469 16.2719 43.9469 16.27C43.9487 16.2682 43.9487 16.2682 43.9487 16.2682C44.0396 16.1777 44.2956 15.9413 44.3457 16.1463C44.3846 16.3051 44.2158 16.5101 44.1379 16.6302C43.7985 17.1381 43.5351 17.6368 43.3033 18.202C42.86 19.2732 42.5465 20.4775 42.6059 21.641ZM41.3297 10.223C41.5801 9.95152 41.8862 9.71511 42.1607 9.46576C42.7598 8.91906 43.4201 8.41299 44.0841 7.9457C44.4366 7.69821 44.8038 7.47472 45.1599 7.23462C45.4994 7.00744 45.8648 6.84675 46.2209 6.65282C47.7233 5.83461 49.363 5.24911 51.0546 4.97761C51.8855 4.84462 52.6979 4.76336 53.5437 4.77444C54.3116 4.78367 55.048 4.88526 55.8029 5.00346C57.3888 5.25096 59.021 5.9602 60.184 7.08316C60.7571 7.63541 61.232 8.30402 61.5399 9.03542C61.8496 9.76867 61.9442 10.6146 61.9312 11.4051C61.9071 12.903 61.3488 14.3159 60.3416 15.4297C59.2454 16.6394 57.6206 17.4262 56.0514 17.816C54.3821 18.2297 52.659 18.3442 50.9507 18.1724C50.5296 18.1299 50.129 18.0524 49.7117 17.9729C49.4279 17.9194 49.0588 17.8233 48.8028 17.6811C48.4986 17.5112 48.6748 17.0144 48.7342 16.7521C48.8158 16.3938 48.9642 16.089 49.1589 15.7806C49.3667 15.45 49.656 15.1563 49.8378 14.8128C49.9973 14.5099 49.7803 14.375 49.4835 14.4766C48.7861 14.7186 48.1184 15.2413 47.6639 15.812C47.4173 16.1223 47.2948 16.4806 47.1056 16.8204C46.9313 17.1381 46.5956 16.8888 46.36 16.7724C46.0298 16.6099 45.6719 16.4381 45.3714 16.2257C45.0987 16.0318 45.3324 15.8064 45.5161 15.6494C46.6827 14.6373 48.1072 13.9742 49.6393 13.7323C49.8174 13.7046 50.0363 13.6436 50.1995 13.7526C50.333 13.8413 50.4183 13.9853 50.5315 14.0961C50.7782 14.3436 51.0694 14.5653 51.3717 14.7444C52.0432 15.1397 52.8741 15.2801 53.6457 15.293C54.5175 15.3078 55.341 15.099 56.1368 14.7555C56.8768 14.4378 57.6058 14.0223 58.1381 13.4091C58.2383 13.2946 58.6741 12.7257 58.2846 12.6943C58.0583 12.6758 57.7987 12.8494 57.5854 12.9141C56.862 13.1283 56.0422 13.0637 55.3503 12.7756C54.7178 12.5114 53.9722 12.0792 53.7236 11.4014C53.4621 10.6866 53.9499 10.3597 54.4173 9.93859C54.4173 9.93859 54.4192 9.93859 54.4211 9.93674V9.9349C54.4229 9.93305 54.4322 9.92382 54.4359 9.92012C54.4415 9.91458 54.4433 9.91458 54.4433 9.91458C54.6473 9.72065 54.3895 9.70218 54.2133 9.76128C54.0408 9.81854 53.8776 9.89242 53.7218 9.98477C53.3953 10.1842 53.1431 10.4613 52.8463 10.6977C52.1953 11.213 51.3476 11.5215 50.5871 11.8317C49.7599 12.166 48.9475 12.5354 48.1425 12.9196C47.382 13.2816 46.6141 13.6325 45.8907 14.0647C45.5161 14.2882 45.1451 14.508 44.7927 14.7629C44.5534 14.9328 44.2066 15.3115 43.9172 15.051C43.3478 14.5357 42.8396 13.8542 42.4204 13.2151C42.1959 12.8753 41.9455 12.5096 41.7934 12.1291C41.6543 11.7745 41.9752 11.5695 42.2182 11.3718C42.7746 10.9175 43.3867 10.537 44.047 10.2507C44.3846 10.103 44.7259 9.96999 45.0876 9.89242C45.2026 9.86656 45.5921 9.72988 45.6737 9.86102C45.7331 9.95891 45.6144 10.1473 45.5865 10.2396C45.5309 10.417 45.5179 10.6072 45.5476 10.7882C45.5977 11.0874 45.7516 11.3922 46.0002 11.5732C46.5548 11.9795 47.4247 11.9001 47.7956 11.2906C48.1666 10.6829 48.0572 9.93859 47.4822 9.49901C46.8794 9.03542 45.9723 9.17764 45.2768 9.3217C45.0765 9.36418 44.8539 9.36418 44.6628 9.4473C44.4903 9.52117 44.3271 9.60798 44.1491 9.67447C43.7633 9.82408 43.4127 10.0383 43.0547 10.2396C42.7004 10.441 42.3814 10.6589 42.0605 10.9083C41.8806 11.0468 41.5505 11.4439 41.378 11.1077C41.25 10.8547 41.1164 10.4557 41.3297 10.223ZM40.9458 12.6721C40.9569 12.661 40.968 12.65 40.9773 12.6389C40.981 12.6352 40.9847 12.6315 40.9884 12.6278C40.9903 12.6259 40.9922 12.6259 40.9922 12.6259C40.9922 12.6241 40.994 12.6241 40.994 12.6241C41.237 12.3729 41.3687 12.5336 41.5022 12.7977C41.6729 13.132 41.9029 13.4294 42.1236 13.7323C42.3517 14.0444 42.6059 14.3362 42.8637 14.6244C43.0862 14.8737 43.3904 15.1027 43.5704 15.3853C43.7299 15.6365 43.3144 15.9394 43.153 16.0816C42.8563 16.3495 42.6244 16.6634 42.3721 16.9682C41.8862 17.5592 41.4373 18.178 41.0756 18.8521C39.8069 21.2255 38.9778 23.8704 39.3543 26.53C38.9741 26.5522 38.4974 26.5392 37.9892 26.5152C37.5311 25.0339 37.4253 23.4345 37.4977 21.8959C37.5385 21.05 37.6312 20.1801 37.826 19.3545C38.0115 18.5658 38.2433 17.7605 38.5494 17.0125C38.8795 16.2017 39.1503 15.3816 39.6085 14.6262C40.0221 13.9484 40.4023 13.2539 40.9458 12.6721ZM39.8385 28.7094C39.7364 28.9052 39.4174 29.0955 39.2282 28.9108C38.9593 28.6485 38.7645 28.2403 38.5883 27.9152C38.5327 27.8136 38.477 27.7121 38.4288 27.6086C38.8591 27.5846 39.256 27.5126 39.5102 27.3501C39.512 27.3593 39.5139 27.3685 39.5157 27.3778C39.5398 27.4757 39.5639 27.5717 39.5899 27.6696C39.6474 27.8728 39.6975 28.0796 39.7754 28.2772C39.8273 28.4028 39.9089 28.5783 39.8385 28.7094ZM37.0024 20.9632C37.0024 20.9687 37.0006 20.9743 37.0006 20.9798C37.0006 20.9854 36.9987 20.9909 36.9987 20.9983C36.9987 21.0001 36.9987 21.0001 36.9987 21.0001C36.9987 21.0038 36.9987 21.0094 36.9969 21.0131V21.0205C36.9969 21.0223 36.9969 21.026 36.995 21.0279C36.9969 21.0297 36.995 21.0315 36.995 21.0334V21.0389C36.995 21.0408 36.995 21.0445 36.9932 21.0463V21.05C36.9783 21.2846 36.9616 21.5265 36.8652 21.7426C36.7149 21.5358 36.7687 21.1516 36.7632 20.9115C36.7539 20.5864 36.7057 20.2761 36.7149 19.9455C36.7335 19.3083 36.8374 18.6877 36.9134 18.0542C37.1119 16.4381 37.7982 14.8682 38.5957 13.4663C39.0186 12.7257 39.5231 12.0238 40.0907 11.3848C40.1853 11.2795 40.5507 10.7125 40.7009 10.9932C40.7603 11.1077 40.7733 11.2407 40.8159 11.3608C40.8679 11.5067 40.9513 11.66 40.879 11.8151C40.79 12.0091 40.6045 12.179 40.4747 12.3471C40.3467 12.5114 40.2224 12.6777 40.0981 12.8457C39.8552 13.1726 39.6159 13.4977 39.4044 13.8468C38.963 14.58 38.6087 15.3447 38.26 16.1223C37.9187 16.8814 37.6757 17.6774 37.4903 18.4864C37.3103 19.3028 37.0674 20.1284 37.0024 20.9632ZM36.7817 31.0348C37.1768 29.9026 37.2361 28.534 36.4998 27.5237C36.7298 27.5403 37.1972 27.5939 37.711 27.6123C37.902 28.0076 38.1023 28.3973 38.3268 28.7778C38.4826 29.04 38.8369 29.3965 38.5661 29.6883C38.3101 29.9654 38.0337 30.2092 37.8019 30.5102C37.3437 31.105 36.9097 31.7883 36.8411 32.5512C36.817 32.8264 36.8188 33.1034 36.8596 33.3712C36.8856 33.5504 36.9282 33.7258 36.9913 33.8958C35.8914 33.1126 35.9044 33.543 36.7817 31.0348ZM45.1099 34.6512C44.7927 34.8432 44.4273 34.9448 44.0804 35.0667C43.2643 35.3512 42.3907 35.4417 41.5319 35.4657C41.083 35.4786 40.5711 35.4546 40.0629 35.3678C39.1355 35.209 38.2192 34.8433 37.7165 34.11C37.659 34.025 37.6071 33.9401 37.5626 33.8514C36.8856 32.5142 37.8501 30.9554 38.9556 30.1316C39.2913 29.8823 39.5751 30.4068 39.7717 30.6192C40.0443 30.9129 40.3318 31.1881 40.6323 31.4559C41.2203 31.9823 41.8064 32.5382 42.4612 32.9833L42.476 32.9926C42.4797 32.9944 42.4797 32.9944 42.4816 32.9963C42.4834 32.9981 42.4853 32.9981 42.4871 33C42.4964 33.0055 42.5261 33.0258 42.5335 33.0314C42.5391 33.0351 42.5428 33.0388 42.5483 33.0424L42.5576 33.048C42.7227 33.1662 42.8785 33.3176 43.0955 33.3158C43.1252 33.1071 42.795 32.9002 42.6578 32.7968C42.4538 32.6435 42.2405 32.5031 42.0494 32.3332C41.6061 31.938 41.2073 31.5242 40.8141 31.0791C40.471 30.6912 40.0555 30.2424 39.8292 29.7751C39.7383 29.5886 39.8681 29.4261 40.0481 29.3633C40.2187 29.3023 40.3355 29.4999 40.4042 29.6181C40.9291 30.5176 41.6172 31.3635 42.3425 32.1079C43.1011 32.8855 43.9283 33.5596 44.8595 34.1248C45.0653 34.2467 45.4678 34.4351 45.1099 34.6512ZM48.226 32.6509C47.9069 32.5973 47.5601 32.3517 47.2856 32.1873C46.6438 31.8068 46.0502 31.3432 45.5457 30.791C45.0301 30.2277 44.5516 29.6292 44.099 29.0142C43.9061 28.7519 43.6445 28.4693 43.5147 28.1701C43.4016 27.9115 43.7132 27.8709 43.8987 27.8229L43.9024 27.821C43.9042 27.8192 43.9042 27.8192 43.9042 27.821L43.9061 27.8192L43.9172 27.8173C43.9228 27.8155 43.9283 27.8136 43.9358 27.8118C43.9506 27.8063 43.9617 27.8044 43.9691 27.8026C43.971 27.8007 43.9747 27.8007 43.9784 27.7989C43.9803 27.7989 43.9821 27.797 43.984 27.797C43.9877 27.7952 43.9895 27.7952 43.9895 27.7952C44.2659 27.7065 44.6109 27.5698 44.8502 27.7952C45.0857 28.0187 45.3028 28.2588 45.542 28.4786C46.0911 28.9846 46.6642 29.4575 47.2781 29.8841C47.8958 30.3108 48.5431 30.6949 49.2109 31.0348C49.3722 31.116 49.8508 31.2749 49.7005 31.5261C49.5559 31.7717 49.2684 31.9989 49.0606 32.1891C48.851 32.3831 48.5468 32.7044 48.226 32.6509ZM56.2777 33.7111C55.8474 34.182 54.9942 34.1008 54.4211 34.0878C53.6216 34.0694 52.8129 34.0324 52.0246 33.8939C51.2493 33.7554 50.4684 33.5411 49.7246 33.277C49.6393 33.2475 49.4056 33.1902 49.3945 33.0738C49.3852 32.9446 49.6226 32.8134 49.7061 32.7469C49.975 32.5234 50.244 32.3018 50.5092 32.0709C50.5092 32.0709 50.5111 32.0709 50.5111 32.0691L50.5241 32.058C50.5315 32.0525 50.5371 32.0469 50.5445 32.0395C50.5612 32.0248 50.5704 32.0174 50.5742 32.0137C50.8672 31.7643 51.0564 31.72 51.4515 31.7994C51.8336 31.8733 52.2268 31.8973 52.6145 31.9176C53.3564 31.9564 54.1057 31.9564 54.8421 31.8345C54.9218 31.8197 55.5247 31.6277 55.3967 31.8807C55.2743 32.1227 55.0721 32.7081 55.4431 32.5198C55.8975 32.2926 56.8638 33.0738 56.2777 33.7111ZM59.481 31.8327C59.2473 31.9176 58.9635 31.9398 58.7168 31.9398C58.0732 31.9398 57.4611 31.6147 56.8268 31.5058C56.8212 31.5039 56.8175 31.5039 56.8119 31.5039C56.8063 31.5021 56.8008 31.5021 56.7952 31.5021C56.7878 31.5002 56.7804 31.5002 56.7767 31.5002C56.7748 31.4984 56.7748 31.4984 56.773 31.4984H56.7711C56.7711 31.4984 56.7711 31.4984 56.7693 31.4984C56.7655 31.4965 56.7637 31.4965 56.76 31.4965C56.7581 31.4947 56.7563 31.4947 56.7563 31.4947C56.632 31.4781 56.4966 31.4688 56.3927 31.3912C56.4799 31.225 56.6635 31.1493 56.8175 31.0569C56.9844 30.9572 57.1495 30.8501 57.309 30.7374C57.5613 30.5583 57.7671 30.3163 58.0175 30.1427C58.2754 29.9654 58.5276 30.3108 58.689 30.4733C58.945 30.7337 59.1787 31.0163 59.4346 31.2749C59.609 31.4504 59.8112 31.7108 59.481 31.8327Z" fill="white"/>
</svg>
