<svg width="24" height="24" viewBox="0 0 24 24" fill="none" xmlns="http://www.w3.org/2000/svg">
<g clip-path="url(#clip0_1840_462)">
<path d="M13.2684 2.82666C11.0529 2.5219 8.80195 3.02903 6.93119 4.2544C5.06044 5.47978 3.69621 7.34065 3.09043 9.49339C2.48464 11.6461 2.67821 13.9454 3.63539 15.9665C4.59257 17.9877 6.24872 19.5943 8.29802 20.4896C8.2426 19.7783 8.29347 19.0628 8.44895 18.3665C8.62024 17.5896 9.64895 13.3081 9.64895 13.3081C9.4441 12.849 9.34173 12.3507 9.34895 11.848C9.34895 10.473 10.1425 9.44703 11.1295 9.44703C11.3068 9.44445 11.4826 9.48008 11.6449 9.55151C11.8073 9.62293 11.9523 9.72847 12.0702 9.86094C12.1881 9.99342 12.2761 10.1497 12.3282 10.3192C12.3803 10.4888 12.3952 10.6675 12.3721 10.8433C12.3721 11.6767 11.8369 12.9378 11.5573 14.1211C11.502 14.3381 11.4985 14.5651 11.547 14.7837C11.5956 15.0023 11.6948 15.2065 11.8367 15.3798C11.9786 15.553 12.1592 15.6905 12.364 15.7812C12.5687 15.8718 12.792 15.9131 13.0156 15.9017C14.773 15.9017 15.9508 13.6507 15.9508 10.9933C15.9508 8.95629 14.6017 7.43037 12.1147 7.43037C11.5197 7.40725 10.9261 7.5053 10.3702 7.71857C9.81421 7.93184 9.30738 8.25587 8.88047 8.67101C8.45356 9.08614 8.11548 9.5837 7.88674 10.1335C7.65801 10.6833 7.5434 11.2738 7.54987 11.8693C7.52336 12.5297 7.73645 13.1776 8.14987 13.6933C8.22712 13.751 8.28353 13.8322 8.31059 13.9247C8.33764 14.0173 8.33388 14.1161 8.29987 14.2063C8.25728 14.3767 8.14987 14.7831 8.10728 14.9322C8.09842 14.9828 8.07781 15.0305 8.04711 15.0717C8.01642 15.1128 7.97649 15.1462 7.93055 15.169C7.8846 15.1919 7.83393 15.2037 7.78261 15.2034C7.73128 15.2031 7.68074 15.1908 7.63506 15.1674C6.35357 14.6544 5.74987 13.2443 5.74987 11.6341C5.74987 8.99796 7.95728 5.84241 12.3739 5.84241C15.8888 5.84241 18.2258 8.4137 18.2258 11.1637C18.2258 14.7831 16.2101 17.5044 13.2314 17.5044C12.7862 17.5187 12.3446 17.4204 11.9474 17.2188C11.5502 17.0171 11.2103 16.7186 10.9591 16.3507C10.9591 16.3507 10.4239 18.4952 10.3184 18.9007C10.1029 19.6014 9.78497 20.2663 9.37487 20.8739C10.2295 21.1331 11.1175 21.2628 12.0101 21.2591C13.2263 21.26 14.4309 21.0211 15.5547 20.5559C16.6785 20.0907 17.6995 19.4084 18.5592 18.5481C19.4189 17.6877 20.1005 16.6663 20.5649 15.5421C21.0293 14.418 21.2674 13.2133 21.2656 11.997C21.2645 9.76092 20.4543 7.60073 18.9847 5.91535C17.5151 4.22996 15.4854 3.13321 13.2702 2.82759L13.2684 2.82666Z" fill="white"/>
</g>
<defs>
<clipPath id="clip0_1840_462">
<rect width="22.2222" height="22.2222" fill="white" transform="translate(0.888672 0.888672)"/>
</clipPath>
</defs>
</svg>
