<svg width="28" height="28" viewBox="0 0 28 28" fill="none" xmlns="http://www.w3.org/2000/svg">
<g id="Frame">
<path id="Vector" d="M15.586 2.53382C12.8166 2.15286 10.0029 2.78677 7.66448 4.31849C5.32603 5.85021 3.62075 8.1763 2.86352 10.8672C2.10629 13.5582 2.34825 16.4322 3.54473 18.9587C4.74121 21.4851 6.81139 23.4933 9.37301 24.6125C9.30374 23.7234 9.36732 22.829 9.56167 21.9586C9.77579 20.9875 11.0617 15.6357 11.0617 15.6357C10.8056 15.0617 10.6776 14.4389 10.6867 13.8104C10.6867 12.0917 11.6786 10.8093 12.9124 10.8093C13.134 10.8061 13.3538 10.8506 13.5567 10.9399C13.7596 11.0292 13.9409 11.1611 14.0882 11.3267C14.2356 11.4923 14.3456 11.6877 14.4107 11.8995C14.4758 12.1114 14.4945 12.3349 14.4656 12.5547C14.4656 13.5963 13.7966 15.1727 13.4471 16.6519C13.378 16.9231 13.3736 17.2069 13.4343 17.4801C13.495 17.7534 13.619 18.0086 13.7963 18.2252C13.9737 18.4417 14.1995 18.6136 14.4555 18.7269C14.7114 18.8402 14.9904 18.8918 15.27 18.8776C17.4668 18.8776 18.939 16.0639 18.939 12.7422C18.939 10.1959 17.2526 8.28845 14.1438 8.28845C13.4001 8.25955 12.6582 8.38211 11.9632 8.6487C11.2682 8.91528 10.6347 9.32033 10.1011 9.83925C9.56744 10.3582 9.14484 10.9801 8.85892 11.6674C8.573 12.3546 8.42974 13.0928 8.43783 13.8371C8.40469 14.6627 8.67105 15.4724 9.18783 16.1172C9.28439 16.1892 9.3549 16.2908 9.38872 16.4064C9.42254 16.5221 9.41784 16.6456 9.37533 16.7584C9.32209 16.9713 9.18783 17.4794 9.13459 17.6658C9.12351 17.729 9.09775 17.7887 9.05938 17.8401C9.02101 17.8915 8.9711 17.9332 8.91367 17.9618C8.85625 17.9904 8.7929 18.0051 8.72875 18.0048C8.66459 18.0044 8.60142 17.989 8.54431 17.9597C6.94246 17.3185 6.18783 15.5558 6.18783 13.5431C6.18783 10.2479 8.94709 6.30349 14.4679 6.30349C18.8614 6.30349 21.7827 9.51761 21.7827 12.9551C21.7827 17.4794 19.2631 20.881 15.5397 20.881C14.9832 20.8988 14.4312 20.776 13.9347 20.5239C13.4383 20.2719 13.0134 19.8987 12.6994 19.4389C12.6994 19.4389 12.0304 22.1195 11.8985 22.6264C11.6291 23.5022 11.2317 24.3334 10.7191 25.0928C11.7874 25.4169 12.8973 25.579 14.0131 25.5743C15.5334 25.5755 17.0391 25.2769 18.4438 24.6954C19.8486 24.1139 21.1248 23.261 22.1995 22.1856C23.2741 21.1101 24.1261 19.8333 24.7066 18.4281C25.2872 17.023 25.5848 15.5171 25.5825 13.9968C25.5811 11.2016 24.5684 8.50141 22.7314 6.39467C20.8944 4.28794 18.3572 2.917 15.5883 2.53498L15.586 2.53382Z" fill="#3B3937"/>
</g>
</svg>
