<svg width="34" height="34" viewBox="0 0 34 34" fill="none" xmlns="http://www.w3.org/2000/svg">
<g id="Logo 1">
<path id="Path 3" fill-rule="evenodd" clip-rule="evenodd" d="M4.79175 16.0099C11.3535 12.8738 15.729 10.8063 17.9183 9.80742C24.1692 6.95533 25.4681 6.45989 26.3147 6.44353C26.5009 6.43994 26.9172 6.49056 27.1869 6.7306C27.4146 6.9333 27.4773 7.2071 27.5072 7.39928C27.5372 7.59145 27.5746 8.02923 27.5449 8.37129C27.2061 12.2756 25.7404 21.7503 24.9948 26.1231C24.6792 27.9735 24.058 28.5939 23.4565 28.6546C22.1494 28.7865 21.1568 27.707 19.8908 26.7966C17.9097 25.3721 16.7906 24.4853 14.8676 23.0952C12.6453 21.4887 14.0859 20.6058 15.3524 19.1628C15.6839 18.7852 21.4431 13.0387 21.5545 12.5175C21.5685 12.4523 21.5814 12.2092 21.4498 12.0809C21.3182 11.9526 21.124 11.9965 20.9838 12.0314C20.7851 12.0808 17.6203 14.3755 11.4895 18.9153C10.5912 19.5919 9.77752 19.9216 9.04851 19.9044C8.24484 19.8853 6.69889 19.4059 5.54963 18.9961C4.14002 18.4934 3.01969 18.2277 3.11725 17.374C3.16806 16.9294 3.72623 16.4747 4.79175 16.0099Z" fill="#3B3937"/>
</g>
</svg>
