<svg width="28" height="28" viewBox="0 0 28 28" fill="none" xmlns="http://www.w3.org/2000/svg">
<path fill-rule="evenodd" clip-rule="evenodd" d="M4.23301 13.2099C9.4824 10.701 12.9828 9.04701 14.7343 8.24789C19.735 5.96622 20.7741 5.56987 21.4514 5.55678C21.6003 5.5539 21.9334 5.5944 22.1491 5.78644C22.3313 5.94859 22.3814 6.16764 22.4054 6.32137C22.4294 6.47511 22.4593 6.82534 22.4355 7.09899C22.1645 10.2224 20.992 17.8022 20.3954 21.3005C20.143 22.7807 19.646 23.277 19.1648 23.3256C18.1191 23.4312 17.3251 22.5675 16.3123 21.8392C14.7274 20.6996 13.8321 19.9902 12.2937 18.8781C10.5159 17.5929 11.6684 16.8866 12.6815 15.7322C12.9467 15.4301 17.5541 10.8329 17.6432 10.4159C17.6544 10.3638 17.6647 10.1693 17.5595 10.0667C17.4542 9.96403 17.2988 9.99913 17.1866 10.0271C17.0277 10.0666 14.4959 11.9023 9.5912 15.5342C8.87255 16.0755 8.22163 16.3393 7.63842 16.3254C6.99548 16.3102 5.75872 15.9267 4.83931 15.5988C3.71163 15.1967 2.81537 14.9841 2.89341 14.3012C2.93406 13.9455 3.38059 13.5817 4.23301 13.2099Z" fill="white"/>
</svg>
