<svg width="28" height="28" viewBox="0 0 28 28" fill="none" xmlns="http://www.w3.org/2000/svg">
<g id="Frame" clip-path="url(#clip0_75_5309)">
<path id="Vector" d="M24.732 8.58882C24.8902 8.09539 24.732 7.75 23.9934 7.75H21.5314C20.8983 7.75 20.6169 8.0625 20.4587 8.40789C20.4587 8.40789 19.2101 11.2697 17.4339 13.1118C16.8536 13.6546 16.6074 13.8191 16.2909 13.8191C16.1326 13.8191 15.904 13.6546 15.904 13.1612V8.58882C15.904 7.99671 15.7281 7.75 15.2006 7.75H11.3318C10.9449 7.75 10.6987 8.02961 10.6987 8.27632C10.6987 8.83553 11.578 8.9671 11.6835 10.5132V13.9013C11.6835 14.6414 11.5428 14.773 11.2262 14.773C10.3997 14.773 8.3598 11.9112 7.16398 8.62171C6.91778 8.01316 6.68917 7.75 6.05609 7.75H3.59411C2.89068 7.75 2.75 8.0625 2.75 8.40789C2.75 9.01645 3.57652 12.0428 6.63641 16.0395C8.67634 18.7697 11.5428 20.25 14.1454 20.25C15.7106 20.25 15.904 19.921 15.904 19.3618V17.2895C15.904 16.6316 16.0447 16.5 16.5547 16.5C16.924 16.5 17.5395 16.6645 18.9991 17.9803C20.6697 19.5428 20.9511 20.25 21.8831 20.25H24.3451C25.0485 20.25 25.4002 19.921 25.1892 19.2796C24.9606 18.6381 24.1692 17.7007 23.1141 16.5822C22.5338 15.9408 21.6721 15.2664 21.4259 14.921C21.0566 14.477 21.1621 14.2796 21.4259 13.9013C21.4259 13.8849 24.433 9.9375 24.732 8.58882Z" fill="#3B3937" stroke="#3B3937" stroke-width="0.5"/>
</g>
<defs>
<clipPath id="clip0_75_5309">
<rect width="27.5" height="27.5" fill="white" transform="translate(0.25 0.25)"/>
</clipPath>
</defs>
</svg>
