<svg width="22" height="22" viewBox="0 0 22 22" fill="none" xmlns="http://www.w3.org/2000/svg">
<g clip-path="url(#clip0_1840_467)">
<path d="M19.5856 6.67105C19.7122 6.27632 19.5856 6 18.9947 6H17.0251C16.5186 6 16.2935 6.25 16.1669 6.52632C16.1669 6.52632 15.1681 8.81579 13.7472 10.2895C13.2829 10.7237 13.0859 10.8553 12.8327 10.8553C12.7061 10.8553 12.5232 10.7237 12.5232 10.3289V6.67105C12.5232 6.19737 12.3825 6 11.9605 6H8.86541C8.5559 6 8.35894 6.22368 8.35894 6.42105C8.35894 6.86842 9.06236 6.97368 9.14677 8.21052V10.921C9.14677 11.5132 9.03423 11.6184 8.78099 11.6184C8.11978 11.6184 6.48784 9.32894 5.53118 6.69737C5.33422 6.21053 5.15133 6 4.64487 6H2.67529C2.11255 6 2 6.25 2 6.52632C2 7.01316 2.66122 9.43421 5.10913 12.6316C6.74107 14.8158 9.03423 16 11.1164 16C12.3685 16 12.5232 15.7368 12.5232 15.2895V13.6316C12.5232 13.1053 12.6358 13 13.0437 13C13.3392 13 13.8316 13.1316 14.9993 14.1842C16.3358 15.4342 16.5608 16 17.3065 16H19.2761C19.8388 16 20.1202 15.7368 19.9513 15.2237C19.7685 14.7105 19.1354 13.9605 18.2913 13.0658C17.827 12.5526 17.1377 12.0132 16.9407 11.7368C16.6453 11.3816 16.7297 11.2237 16.9407 10.921C16.9407 10.9079 19.3464 7.75 19.5856 6.67105Z" fill="white" stroke="white" stroke-width="0.5"/>
</g>
<defs>
<clipPath id="clip0_1840_467">
<rect width="22" height="22" fill="white"/>
</clipPath>
</defs>
</svg>
